<svg width="221" height="45" viewBox="0 0 221 45" fill="none" xmlns="http://www.w3.org/2000/svg">
<g clip-path="url(#clip0_783_21)">
<path d="M146.643 0.0186768H185.066V7.11028H169.824V44.4182H162.202V7.11028H146.643V0.0186768Z" fill="white"/>
<path d="M83.4522 0.0186768V7.11028H52.6536V18.5185H77.4218V25.6101H52.6536V37.3267H83.4522V44.4182H45.0325V7.11028H45.0293V0.0186768H83.4522Z" fill="white"/>
<path d="M102.638 0.0372314H92.6641L128.387 44.4368H138.39L120.526 22.2523L138.362 0.0711055L128.387 0.0865182L115.533 16.051L102.638 0.0372314Z" fill="white"/>
<path d="M112.873 31.7521L107.879 25.5422L92.6367 44.4707H102.639L112.873 31.7521Z" fill="white"/>
<path fill-rule="evenodd" clip-rule="evenodd" d="M45.2977 44.4181L9.52632 0H0V44.3996H7.62106V9.49038L35.7237 44.4181H45.2977Z" fill="white"/>
<path d="M186.777 44.1472C186.219 44.1472 185.744 43.9539 185.347 43.5672C184.949 43.1805 184.753 42.7124 184.758 42.1578C184.753 41.6184 184.949 41.1554 185.347 40.7687C185.744 40.382 186.219 40.1886 186.777 40.1886C187.314 40.1886 187.784 40.382 188.182 40.7687C188.585 41.1554 188.786 41.6184 188.791 42.1578C188.786 42.5241 188.693 42.8599 188.507 43.1601C188.316 43.4654 188.073 43.7046 187.768 43.8776C187.469 44.0557 187.138 44.1472 186.777 44.1472Z" fill="white"/>
<path d="M199.786 25.4429H203.163V38.4534C203.158 39.6492 202.9 40.6719 202.394 41.5318C201.883 42.3917 201.175 43.048 200.267 43.5111C199.363 43.969 198.304 44.2031 197.101 44.2031C196.001 44.2031 195.015 44.0046 194.137 43.618C193.259 43.2313 192.562 42.6512 192.051 41.888C191.534 41.1247 191.281 40.1732 191.281 39.0335H194.664C194.669 39.5322 194.783 39.9646 194.999 40.3259C195.216 40.6871 195.516 40.9619 195.898 41.1552C196.285 41.3486 196.729 41.4453 197.23 41.4453C197.772 41.4453 198.237 41.3333 198.614 41.1043C198.991 40.8804 199.28 40.5447 199.482 40.0969C199.678 39.6543 199.781 39.1047 199.786 38.4534V25.4429Z" fill="white"/>
<path d="M217.06 30.531C216.977 29.7423 216.616 29.1267 215.986 28.6891C215.35 28.2464 214.53 28.0276 213.522 28.0276C212.815 28.0276 212.206 28.1345 211.7 28.3431C211.194 28.5568 210.801 28.8417 210.533 29.203C210.265 29.5642 210.13 29.9764 210.12 30.4395C210.12 30.8261 210.212 31.1619 210.393 31.4418C210.574 31.7267 210.817 31.9659 211.132 32.1593C211.441 32.3577 211.787 32.5205 212.165 32.6528C212.547 32.7851 212.929 32.897 213.311 32.9886L215.072 33.4211C215.779 33.5839 216.466 33.8028 217.122 34.0826C217.777 34.3574 218.372 34.7084 218.893 35.1307C219.415 35.5531 219.828 36.0619 220.132 36.6572C220.437 37.2525 220.592 37.9496 220.592 38.7535C220.592 39.8373 220.313 40.7888 219.75 41.6131C219.187 42.4323 218.377 43.0734 217.313 43.5365C216.254 43.9944 214.974 44.2284 213.466 44.2284C212.01 44.2284 210.739 44.0046 209.671 43.5568C208.597 43.1142 207.76 42.4628 207.156 41.608C206.551 40.7532 206.226 39.7101 206.18 38.4839H209.526C209.573 39.1249 209.779 39.6593 210.13 40.0918C210.486 40.5191 210.951 40.8346 211.519 41.0483C212.093 41.2569 212.732 41.3638 213.44 41.3638C214.179 41.3638 214.829 41.2518 215.392 41.033C215.949 40.8142 216.388 40.509 216.704 40.1121C217.024 39.7203 217.184 39.2573 217.189 38.7281C217.184 38.2447 217.039 37.8427 216.76 37.5272C216.476 37.2118 216.084 36.9472 215.583 36.7335C215.077 36.5198 214.488 36.3265 213.817 36.1586L211.679 35.6192C210.135 35.2274 208.911 34.6321 208.018 33.8333C207.12 33.0344 206.675 31.9761 206.675 30.6481C206.675 29.5592 206.975 28.6026 207.579 27.7834C208.178 26.9642 208.999 26.3282 210.037 25.8753C211.08 25.4174 212.258 25.1935 213.569 25.1935C214.901 25.1935 216.068 25.4174 217.075 25.8753C218.082 26.3282 218.873 26.9591 219.445 27.763C220.019 28.567 220.318 29.4879 220.334 30.531H217.06Z" fill="white"/>
</g>
<defs>
<clipPath id="clip0_783_21">
<rect width="220.59" height="44.7881" fill="white"/>
</clipPath>
</defs>
</svg>
