<svg width="96" height="110" viewBox="0 0 96 110" fill="none" xmlns="http://www.w3.org/2000/svg">
<path d="M47.5457 0L95.0914 27.4502V82.3507L47.5457 109.801L0 82.3507V27.4502L47.5457 0Z" fill="#673AB8"/>
<path d="M12.9515 81.8967C19.2721 89.9869 39.3598 83.8227 58.3242 69.0059C77.2886 54.1895 88.1294 36.1901 81.8088 28.0995C75.4878 20.0093 55.4005 26.1739 36.4361 40.9903C17.4716 55.8075 6.63085 73.8065 12.9515 81.8967ZM15.6519 79.7869C13.5554 77.1043 14.4714 71.8371 18.4649 65.2063C22.6705 58.2242 29.8094 50.5162 38.5455 43.6908C47.2821 36.8654 56.4877 31.8029 64.28 29.4115C71.6801 27.1408 77.0122 27.5264 79.1083 30.2094C81.2048 32.8923 80.2888 38.1595 76.2953 44.7903C72.0898 51.7724 64.9509 59.4801 56.2147 66.3058C47.4782 73.1312 38.2721 78.1938 30.4802 80.5848C23.0802 82.8558 17.748 82.4703 15.6519 79.7873V79.7869Z" fill="white"/>
<path d="M81.8089 81.8967C88.1299 73.8065 77.2887 55.8071 58.3243 40.9903C39.3599 26.1739 19.2718 20.0093 12.9516 28.0995C6.63062 36.1897 17.4718 54.1895 36.4362 69.0059C55.4006 83.8227 75.4879 89.9873 81.8089 81.8967ZM79.1085 79.7869C77.0124 82.4703 71.6802 82.8558 64.2802 80.5848C56.4879 78.1938 47.2822 73.1312 38.546 66.3058C29.8095 59.4801 22.6702 51.7724 18.4654 44.7903C14.4716 38.1595 13.5556 32.8927 15.6517 30.2094C17.7481 27.5264 23.0803 27.1408 30.48 29.4115C38.2723 31.8029 47.4783 36.8654 56.2145 43.6908C64.951 50.5162 72.0899 58.2242 76.2951 65.2063C80.2889 71.8367 81.2049 77.1039 79.1085 79.7873V79.7869Z" fill="white"/>
<path d="M47.3776 62.28C51.3993 62.28 54.6592 59.0198 54.6592 54.9981C54.6592 50.9768 51.3993 47.7166 47.3776 47.7166C43.3559 47.7166 40.0957 50.9768 40.0957 54.9981C40.0957 59.0198 43.3559 62.28 47.3776 62.28V62.28Z" fill="white"/>
</svg>
