<svg width="116" height="103" viewBox="0 0 116 103" fill="none" xmlns="http://www.w3.org/2000/svg">
<path d="M94.9488 33.3019C93.7198 32.8802 92.4804 32.4896 91.2317 32.1304C91.4415 31.2733 91.6346 30.4266 91.806 29.5948C94.6199 15.935 92.7804 4.93044 86.497 1.30721C80.4726 -2.16626 70.6201 1.45562 60.6697 10.1154C59.6891 10.9704 58.7302 11.85 57.794 12.7534C57.1672 12.1527 56.5294 11.5636 55.8809 10.9865C45.4523 1.72718 34.9995 -2.17528 28.7229 1.45833C22.7038 4.94262 20.9215 15.2877 23.4549 28.2333C23.707 29.5155 23.9916 30.791 24.3084 32.0587C22.8288 32.4791 21.4011 32.9266 20.0347 33.4029C7.80808 37.6658 0 44.3462 0 51.2755C0 58.4322 8.38233 65.6106 21.1169 69.9632C22.1493 70.3147 23.1903 70.6403 24.2389 70.9399C23.8984 72.3052 23.596 73.6798 23.3322 75.062C20.917 87.783 22.8031 97.8836 28.8059 101.346C35.0058 104.921 45.4117 101.247 55.5439 92.3892C56.3655 91.6691 57.169 90.9286 57.9537 90.1684C58.9675 91.1467 60.0085 92.0964 61.0753 93.0167C70.8903 101.462 80.5835 104.872 86.5805 101.401C92.7745 97.815 94.7878 86.9643 92.1741 73.7628C91.9682 72.7286 91.7373 71.6995 91.4816 70.6764C92.2124 70.4599 92.9297 70.237 93.6289 70.0052C106.868 65.6191 115.481 58.5278 115.481 51.2755C115.481 44.3209 107.421 37.5955 94.9488 33.3019V33.3019ZM92.0775 65.3228C91.446 65.5316 90.7982 65.7333 90.1378 65.9295C88.6763 61.3026 86.704 56.3829 84.2902 51.2994C86.5935 46.3373 88.49 41.4803 89.9105 36.8836C91.0919 37.2256 92.2381 37.586 93.3433 37.9663C104.03 41.6454 110.548 47.0843 110.548 51.2755C110.548 55.7396 103.508 61.5349 92.0775 65.3228V65.3228ZM87.3347 74.721C88.4904 80.5582 88.6551 85.8361 87.8895 89.9623C87.2021 93.6699 85.819 96.1414 84.1084 97.1316C80.4694 99.2382 72.6866 96.5001 64.293 89.2771C63.3007 88.4215 62.3324 87.5385 61.3892 86.6291C64.6435 83.0704 67.8955 78.9333 71.0694 74.3384C76.6522 73.8431 81.9265 73.033 86.7095 71.9273C86.9399 72.8535 87.1483 73.7849 87.3347 74.721V74.721ZM39.3702 96.7676C35.8146 98.023 32.9826 98.0591 31.2707 97.0721C27.628 94.9713 26.1137 86.861 28.1793 75.9822C28.4248 74.6967 28.706 73.4183 29.0224 72.1483C33.7526 73.1949 38.9885 73.9473 44.5844 74.4011C47.78 78.8972 51.1258 83.0298 54.4978 86.6485C53.7812 87.3419 53.0476 88.0175 52.2978 88.6748C47.817 92.5913 43.3272 95.3701 39.3702 96.7676V96.7676ZM22.7129 65.2952C17.0818 63.3704 12.4314 60.8691 9.24393 58.1395C6.37945 55.6868 4.93368 53.2513 4.93368 51.2755C4.93368 47.0704 11.2026 41.7068 21.6586 38.0615C22.9276 37.6194 24.2556 37.2021 25.6337 36.8106C27.0791 41.511 28.9746 46.4257 31.2621 51.3955C28.9448 56.4388 27.0222 61.432 25.5629 66.188C24.6057 65.9138 23.6554 65.6161 22.7129 65.2952V65.2952ZM28.2966 27.2856C26.1263 16.1944 27.5676 7.82785 31.1949 5.72798C35.0581 3.49143 43.601 6.68026 52.6054 14.6755C53.1926 15.1981 53.7702 15.7312 54.3381 16.2747C50.9828 19.8776 47.6677 23.9795 44.5005 28.449C39.0693 28.9524 33.8704 29.7608 29.0905 30.8439C28.796 29.6648 28.5313 28.4785 28.2966 27.286V27.2856ZM78.1102 39.5862C76.9812 37.636 75.8103 35.7104 74.5983 33.8107C78.2829 34.2767 81.8132 34.8952 85.1284 35.6512C84.1332 38.8414 82.8927 42.1764 81.4325 45.5957C80.3652 43.5706 79.2575 41.567 78.1102 39.5862V39.5862ZM57.7962 19.8005C60.0716 22.2657 62.3505 25.0179 64.5921 28.0042C60.045 27.7894 55.4903 27.7885 50.9431 28.0015C53.1869 25.0427 55.4853 22.2942 57.7962 19.8005ZM37.352 39.62C36.2189 41.5849 35.1319 43.576 34.0919 45.5917C32.6556 42.1845 31.4263 38.8342 30.4226 35.5989C33.7174 34.8618 37.2311 34.2591 40.8922 33.8017C39.6667 35.713 38.4863 37.6528 37.352 39.6196V39.62ZM40.9973 69.1003C37.2148 68.678 33.6484 68.1065 30.3545 67.3893C31.374 64.0962 32.6303 60.6746 34.0977 57.1944C35.1419 59.2115 36.2335 61.2038 37.3713 63.1697C38.5415 65.1906 39.7532 67.17 40.9973 69.1003ZM57.9325 83.0979C55.594 80.5753 53.2618 77.7844 50.9842 74.7828C53.1955 74.8694 55.4496 74.9136 57.7407 74.9136C60.0946 74.9136 62.4214 74.8608 64.7116 74.7589C62.4629 77.8146 60.1925 80.6096 57.9325 83.0979ZM81.479 57.0167C83.0226 60.5352 84.3236 63.9388 85.3566 67.1754C82.0086 67.9396 78.3934 68.5549 74.5844 69.0118C75.8049 67.0769 76.9869 65.1178 78.1295 63.1358C79.2913 61.1212 80.408 59.081 81.479 57.0167V57.0167ZM73.8563 60.671C72.107 63.7098 70.2594 66.6909 68.3163 69.6096C64.7967 69.8588 61.2692 69.9827 57.7407 69.9808C54.1468 69.9808 50.6513 69.8689 47.2852 69.6506C45.2914 66.7387 43.4085 63.7524 41.6406 60.6981H41.641C39.8814 57.66 38.2377 54.5561 36.7136 51.3933C38.2338 48.2296 39.8725 45.1243 41.6261 42.0839L41.6257 42.0844C43.3786 39.0431 45.2465 36.0696 47.2252 33.1702C50.6594 32.9103 54.1811 32.775 57.7403 32.775H57.7407C61.3162 32.775 64.8424 32.9117 68.2757 33.1733C70.2344 36.0684 72.0904 39.0317 73.84 42.0577C75.5995 45.0915 77.2598 48.1816 78.8184 51.3233C77.2758 54.4971 75.6208 57.615 73.8563 60.671V60.671ZM84.0331 5.58093C87.8999 7.81116 89.4039 16.8047 86.9743 28.5987C86.8191 29.3512 86.645 30.1176 86.4555 30.8948C81.6639 29.7887 76.4614 28.9664 71.0144 28.4553C67.8413 23.9366 64.5533 19.8285 61.2526 16.272C62.1176 15.4381 63.0032 14.6259 63.9086 13.8361C72.4344 6.41681 80.4026 3.48737 84.0331 5.58093V5.58093ZM57.7407 40.9634C63.4359 40.9634 68.0529 45.5804 68.0529 51.2755C68.0529 56.9706 63.4359 61.5877 57.7407 61.5877C52.0456 61.5877 47.4286 56.9706 47.4286 51.2755C47.4286 45.5804 52.0456 40.9634 57.7407 40.9634V40.9634Z" fill="#00D8FF"/>
</svg>
