<svg width="106" height="64" viewBox="0 0 106 64" fill="none" xmlns="http://www.w3.org/2000/svg">
<path d="M51.6805 0.0208179C33.0917 0.611631 27.5669 13.8905 26.3008 21.0843C27.9505 18.4177 33.1493 12.5669 40.8035 12.5669C49.7238 12.5669 56.5148 22.5232 60.6584 25.6309C65.6926 29.4065 75.8083 34.3918 89.0883 30.35C99.6776 27.1272 104.589 15.8855 105.663 10.5525C100.541 17.5162 92.7715 21.6988 83.1606 16.768C76.5423 13.3725 71.593 -0.612122 51.6805 0.0208179Z" fill="#38BDF8"/>
<path d="M25.3797 31.616C6.79095 32.2068 1.26611 45.4857 0 52.6795C1.64978 50.013 6.8485 44.1621 14.5027 44.1621C23.423 44.1621 30.214 54.1184 34.3576 57.2261C39.3918 61.0017 49.5075 65.987 62.7875 61.9452C73.3768 58.7224 78.2878 47.4807 79.3621 42.1478C74.2401 49.1114 66.4708 53.294 56.8598 48.3632C50.2415 44.9677 45.2922 30.9831 25.3797 31.616Z" fill="#38BDF8"/>
</svg>
