<svg width="79" height="79" viewBox="0 0 79 79" fill="none" xmlns="http://www.w3.org/2000/svg">
<path d="M70.5093 0H7.63088C3.41646 0 0 3.41646 0 7.63088V70.5093C0 74.7237 3.41646 78.1402 7.63088 78.1402H70.5093C74.7237 78.1402 78.1402 74.7237 78.1402 70.5093V7.63088C78.1402 3.41646 74.7237 0 70.5093 0Z" fill="#2F74C0"/>
<path fill-rule="evenodd" clip-rule="evenodd" d="M48.3807 62.1153V69.7461C49.6169 70.3871 51.1278 70.8602 52.8066 71.1807C54.4854 71.5012 56.3168 71.6539 58.1482 71.6539C59.9796 71.6539 61.6584 71.486 63.3372 71.135C65.016 70.7839 66.3895 70.204 67.6105 69.4562C68.8467 68.6473 69.8997 67.6248 70.5102 66.2512C71.1207 64.8776 71.5938 63.3515 71.5938 61.3674C71.5938 59.9786 71.3801 58.7729 70.9681 57.7046C70.556 56.6363 69.9608 55.7206 69.1366 54.9575C68.3583 54.1486 67.4579 53.4313 66.3895 52.8208C65.3212 52.2104 64.1003 51.5694 62.7267 50.9894C61.7194 50.5774 60.8953 50.1806 59.9796 49.7838C59.186 49.387 58.4992 48.9901 57.9956 48.5933C57.4309 48.1813 57.0036 47.7539 56.6983 47.3114C56.3931 46.8535 56.2405 46.3499 56.2405 45.7852C56.2405 45.2663 56.3763 44.7932 56.6525 44.3658C56.9288 43.9385 57.3088 43.5875 57.7972 43.2823C58.2855 42.977 58.896 42.7481 59.6286 42.5802C60.3459 42.4123 61.1395 42.336 62.0705 42.336C62.7115 42.336 63.383 42.3833 64.0545 42.4795C64.7565 42.5756 65.4738 42.7237 66.1911 42.9221C66.9084 43.1205 67.6105 43.3647 68.3278 43.6699C68.9993 43.9751 69.625 44.3262 70.1592 44.723V37.5499C68.9993 37.1073 67.7173 36.7716 66.3437 36.5579C64.9702 36.3443 63.444 36.2374 61.6126 36.2374C59.7812 36.2374 58.1024 36.4358 56.4236 36.8174C54.7448 37.1989 53.3713 37.8094 52.1503 38.6488C50.9141 39.4729 50.0137 40.4802 49.2506 41.8538C48.5333 43.1357 48.1823 44.6009 48.1823 46.4323C48.1823 48.7215 48.8385 50.7056 50.1663 52.2317C51.4788 53.9105 53.5239 55.1315 56.1184 56.3524C57.1714 56.7797 58.1024 57.2071 59.0181 57.6191C59.9338 58.0312 60.6969 58.4585 61.3074 58.9011C61.9636 59.3437 62.4825 59.8321 62.8335 60.351C63.2151 60.8699 63.4135 61.4804 63.4135 62.1824C63.4135 62.6708 63.2944 63.1286 63.0625 63.556C62.8305 63.9833 62.4673 64.3496 61.9789 64.6548C61.4905 64.9601 60.8953 65.2042 60.1475 65.3874C59.4302 65.5553 58.6213 65.6468 57.553 65.6468C55.8742 65.6468 54.1954 65.3569 52.6692 64.7769C50.9904 64.197 49.4642 63.327 48.0907 62.1824L48.3807 62.1153ZM35.5608 43.3433H45.3283V37.086H18.0098V43.3433H27.7773V71.2723H35.5608V43.3433Z" fill="white"/>
</svg>
