<svg width="60" height="61" viewBox="0 0 60 61" fill="none"
    xmlns="http://www.w3.org/2000/svg">
    <path d="M29.9885 0.704834C13.5476 0.704834 0.241211 14.0094 0.241211 30.4522C0.241211 46.8931 13.5458 60.1995 29.9885 60.1995C46.4295 60.1995 59.7359 46.8949 59.7359 30.4522C59.7359 14.0112 46.4313 0.704834 29.9885 0.704834ZM41.0597 32.6313H35.4917V44.4475C35.4917 45.5427 34.6038 46.4307 33.5085 46.4307H26.4686C25.3734 46.4307 24.4854 45.5428 24.4854 44.4475V32.6313H18.9173C17.2656 32.6313 16.3417 30.7256 17.3537 29.4282L28.4248 15.2369C29.2192 14.2188 30.7596 14.221 31.5521 15.2369L42.6232 29.4282C43.6356 30.7258 42.7113 32.6313 41.0597 32.6313Z" fill="#C0BEC6"/>
</svg>
