<svg width="44" height="44" viewBox="0 0 44 44" fill="none" xmlns="http://www.w3.org/2000/svg">
<path d="M37.125 35.75V13.75H15.125V12.375C15.125 10.1007 16.9757 8.25 19.25 8.25H23.375V0H19.25C12.4273 0 6.875 5.55225 6.875 12.375V13.75H1.375V22H6.875V35.75H1.375V44H20.625V35.75H15.125V22H28.952V35.75H23.375V44H42.625V35.75H37.125Z" fill="#1DBF73"/>
<path d="M33 8.25C35.2782 8.25 37.125 6.40317 37.125 4.125C37.125 1.84683 35.2782 0 33 0C30.7218 0 28.875 1.84683 28.875 4.125C28.875 6.40317 30.7218 8.25 33 8.25Z" fill="#1DBF73"/>
</svg>
