<svg width="418" height="312" viewBox="0 0 418 312" fill="none" xmlns="http://www.w3.org/2000/svg">
<rect x="0.150832" y="0.525148" width="274.93" height="264.042" transform="matrix(0.93358 0.358368 -0.601118 0.79916 160.459 0.753993)" fill="url(#paint0_linear)" stroke="black" stroke-width="0.90736"/>
<g clip-path="url(#clip0)">
<path d="M291.5 192.71L290.939 193.889L290.216 195.283L289.15 196.267L288.084 197.252L286.928 197.923L285.682 198.28L284.526 198.951L283.46 199.936L283.315 200.995L282.827 201.643L281.166 202.12L280.588 202.456L278.781 203.992L278.204 204.328L276.722 205.431L275.566 206.102L275.494 206.632L275.836 207.042L277.117 208.369L277.622 208.563L279.716 208.81L284.28 211.398L284.713 212.121L284.315 213.083L283.574 213.635L282.328 213.993L281.57 213.702L281.318 213.605L281.626 212.33L281.536 212.016L281.193 211.606L280.688 211.412L279.099 211.36L278.684 211.479L278.269 211.599L276.265 211.665L272.331 211.27L268.199 209.405L266.846 208.607L266.323 207.57L265.981 207.16L265.475 206.966L265.06 207.085L264.645 207.205L264.139 207.011L264.05 206.698L264.122 206.168L264.448 205.736L265.025 205.4L265.441 205.281L265.766 204.848L265.676 204.535L265.496 203.909L264.901 203.401L264.558 202.991L262.79 202.312L262.627 202.529L262.375 202.432L262.122 202.335L261.707 202.454L261.544 202.67L260.966 203.006L260.551 203.125L260.136 203.244L259.468 203.267L258.8 203.289L258.71 202.976L258.457 202.879L258.62 202.663L258.783 202.446L258.693 202.133L258.44 202.036L257.52 201.961L257.177 201.551L257.087 201.238L257.16 200.709L256.98 200.082L255.481 200.343L254.544 199.426L253.768 198.292L251.962 199.828L251.384 200.164L249.975 200.738L248.64 200.782L248.314 201.215L247.899 201.334L247.411 201.983L247.086 202.415L247.176 202.728L247.193 203.571L247.463 204.511L247.553 204.824L247.643 205.137L247.66 205.98L247.75 206.293L248.093 206.703L248.183 207.017L248.273 207.33L248.525 207.427L248.615 207.74L248.2 207.859L247.207 208.314L246.791 208.433L246.629 208.65L246.881 208.747L246.971 209.06L246.556 209.179L246.141 209.298L245.31 209.537L244.985 209.969L244.822 210.186L244.912 210.499L244.497 210.618L243.992 210.424L242.639 209.626L242.549 209.313L242.459 209L242.621 208.783L241.611 208.396L238.091 207.881L233.236 207.41L232.568 207.433L231.9 207.455L231.558 207.045L230.115 205.933L228.599 205.352L229.16 204.173L229.322 203.957L229.395 203.428L229.053 203.017L228.963 202.704L228.025 201.787L227.772 201.69L227.935 201.474L228.423 200.825L229.163 200.273L229.814 199.408L231.15 199.364L231.565 199.244L232.233 199.222L232.901 199.2L233.479 198.864L233.894 198.745L234.399 198.939L234.562 198.723L234.977 198.603L234.635 198.193L233.607 196.963L233.354 196.866L233.102 196.769L232.596 196.575L232.759 196.358L232.832 195.829L233.41 195.493L234.24 195.255L234.403 195.039L234.981 194.703L235.144 194.487L235.054 194.174L234.548 193.98L234.043 193.786L233.628 193.905L233.375 193.808L233.285 193.495L233.105 192.868L232.835 191.929L232.746 191.616L232.656 191.302L233.306 190.437L230.87 189.781L230.617 189.684L230.527 189.371L230.69 189.154L230.853 188.938L231.178 188.506L231.503 188.073L231.666 187.857L231.576 187.544L231.323 187.447L229.572 187.611L229.067 187.417L228.814 187.32L228.977 187.103L229.14 186.887L229.302 186.671L229.375 186.141L229.122 186.044L227.607 185.463L227.264 185.052L227.174 184.739L227.084 184.426L227.157 183.897L227.32 183.68L227.482 183.464L227.808 183.032L227.97 182.815L228.386 182.696L229.053 182.674L229.306 182.771L229.631 182.338L229.704 181.809L229.434 180.869L227.092 176.626L228.5 176.052L228.825 175.619L228.735 175.306L228.898 175.09L229.549 174.225L229.874 173.792L230.289 173.673L230.867 173.337L231.788 173.412L231.95 173.196L232.276 172.763L232.348 172.234L232.421 171.704L232.494 171.175L232.151 170.765L231.899 170.668L231.809 170.354L232.224 170.235L233.397 170.407L233.65 170.504L233.487 170.72L233.83 171.13L234.082 171.227L234.66 170.892L235.075 170.772L235.238 170.556L235.148 170.243L234.968 169.617L234.878 169.303L235.204 168.871L235.366 168.655L235.854 168.006L237.55 169.214L238.218 169.192L238.47 169.289L239.138 169.266L239.571 169.99L239.823 170.087L240.239 169.968L240.491 170.065L240.654 169.848L241.069 169.729L241.322 169.826L242.332 170.214L242.585 170.311L243.253 170.289L244.426 170.46L246.284 171.452L246.627 171.862L246.464 172.079L246.554 172.392L246.644 172.705L246.824 173.331L246.661 173.548L246.499 173.764L246.336 173.98L246.589 174.077L247.094 174.271L247.852 174.562L252.364 174.622L252.617 174.719L252.87 174.816L253.465 175.323L253.718 175.42L253.97 175.517L254.295 175.085L254.531 174.339L255.109 174.004L255.524 173.884L258.611 173.676L258.791 174.302L258.718 174.832L258.393 175.264L258.483 175.577L258.573 175.891L258.825 175.988L259.403 175.652L259.656 175.749L259.909 175.846L260.161 175.943L260.251 176.256L260.106 177.315L261.857 177.151L262.525 177.129L262.777 177.226L266.224 178.27L266.729 178.464L266.567 178.68L266.404 178.897L266.331 179.426L268.318 178.517L268.733 178.397L269.889 177.726L270.141 177.823L270.394 177.92L270.737 178.33L271.242 178.524L271.495 178.621L271.91 178.502L273.554 177.182L274.294 176.63L275.865 175.84L276.443 175.505L276.769 175.072L277.599 174.834L278.43 174.595L279.098 174.573L279.676 174.237L280.254 173.902L280.579 173.469L281.229 172.604L282.385 171.933L283.503 173.477L284.06 176.199L285.212 179.428L285.157 180.8L284.939 182.389L284.755 185.662L285.548 187.639L288.541 191.017L289.894 191.815L291.5 192.71Z" fill="#4D91BB" stroke="white" stroke-width="0.541186" stroke-linejoin="round"/>
<path d="M281.57 213.702L279.982 213.649L279.314 213.672L278.068 214.03L277.075 214.484L276.497 214.82L275.268 216.02L274.04 217.221L273.047 217.676L272.289 217.385L270.071 215.14L269.565 214.946L269.15 215.065L268.735 215.184L268.572 215.401L268.067 215.207L267.814 215.11L265.018 213.2L263.593 212.932L261.606 213.841L261.281 214.274L260.467 215.355L259.979 216.004L259.402 216.339L256.927 217.898L255.519 218.472L254.525 218.927L253.948 219.262L252.359 219.21L248.334 218.501L247.829 218.307L246.729 217.606L246.224 217.412L244.888 217.457L244.22 217.479L243.895 217.911L243.569 218.344L242.991 218.679L241.745 219.037L240.662 219.179L239.832 219.417L238.928 220.185L238.603 220.618L238.205 221.58L237.88 222.012L237.554 222.445L237.302 222.348L237.049 222.251L236.634 222.37L235.551 222.512L234.973 222.847L234.485 223.496L232.858 225.658L232.533 226.091L231.792 226.643L231.63 226.859L230.889 227.411L230.564 227.843L230.166 228.805L229.622 230.826L229.224 231.788L228.321 232.556L227.328 233.011L226.497 233.249L223.916 233.652L223.085 233.89L222.182 234.658L220.953 235.859L220.303 236.724L219.652 237.589L218.496 238.26L215.842 239.192L214.686 239.863L213.71 241.16L213.637 241.69L214.233 242.197L215.496 242.682L217.915 242.496L218.42 242.69L218.762 243.1L218.6 243.316L218.527 243.845L218.129 244.807L218.219 245.121L218.634 245.001L218.887 245.098L218.814 245.628L218.904 245.941L218.832 246.47L218.759 247L218.596 247.216L218.849 247.313L218.939 247.626L218.776 247.843L218.613 248.059L217.783 248.297L217.62 248.514L216.156 250.46L215.416 251.012L214.333 251.153L213.917 251.273L212.817 250.571L212.402 250.691L211.571 250.929L211.156 251.049L210.398 250.758L207.944 249.258L207.349 248.751L207.079 247.812L207.73 246.947L207.893 246.73L209.066 246.902L209.644 246.566L209.716 246.037L209.121 245.53L209.446 245.097L210.53 244.956L211.125 245.463L211.54 245.344L211.218 241.876L211.381 241.66L211.291 241.347L210.786 241.153L209.703 241.294L207.554 242.42L206.47 242.562L203.944 241.592L202.411 240.167L201.743 240.19L201.165 240.525L198.781 242.397L197.625 243.068L195.386 243.88L193.635 244.044L192.209 243.776L190.334 241.941L189.07 241.456L187.555 240.874L187.392 241.09L187.7 239.815L187.936 239.07L187.846 238.756L187.756 238.443L187.666 238.13L187.07 237.623L186.98 237.31L187.306 236.877L187.631 236.445L193.03 234.894L194.853 234.201L195.594 233.649L196.985 232.232L197.311 231.8L197.726 231.68L197.889 231.464L198.304 231.345L199.314 231.733L200.145 231.494L200.308 231.278L200.47 231.062L201.934 229.115L200.418 228.534L197.242 228.429L195.328 228.809L194.823 228.615L194.57 228.518L193.975 228.011L193.559 228.13L192.892 228.153L192.639 228.056L192.386 227.959L192.296 227.645L192.459 227.429L192.784 226.997L192.947 226.78L193.11 226.564L193.02 226.251L192.425 225.744L191.577 225.14L191.324 225.043L190.656 225.065L189.573 225.207L188.905 225.229L187.732 225.057L187.227 224.863L184.863 223.677L184.431 222.954L184.593 222.738L184.919 222.305L185.244 221.873L185.985 221.321L185.895 221.008L185.877 220.165L186.293 220.046L186.618 219.613L186.943 219.181L187.341 218.219L188.172 217.98L188.334 217.764L188.497 217.548L189.563 216.563L189.888 216.131L190.304 216.012L190.556 216.109L190.809 216.206L190.899 216.519L191.314 216.4L191.567 216.497L192.145 216.161L192.47 215.728L192.633 215.512L192.795 215.296L192.958 215.08L192.778 214.453L193.356 214.118L193.266 213.805L193.591 213.372L193.917 212.94L193.827 212.626L194.405 212.291L194.983 211.955L195.65 211.933L197.239 211.985L197.817 211.65L198.232 211.531L198.485 211.628L199.332 212.232L199.838 212.426L200.253 212.306L200.578 211.874L200.904 211.441L201.229 211.009L201.807 210.673L202.132 210.241L202.71 209.905L203.613 209.137L203.939 208.705L204.354 208.586L205.022 208.563L207.441 208.377L208.271 208.139L209.427 207.467L210.926 207.207L210.836 206.893L210.729 205.737L210.549 205.111L210.043 204.917L208.943 204.216L208.6 203.806L207.808 201.83L206.78 200.599L206.853 200.069L206.6 199.973L207.756 199.301L208.171 199.182L208.497 198.75L208.749 198.847L208.912 198.63L209.58 198.608L209.995 198.489L210.411 198.37L211.078 198.347L211.494 198.228L211.746 198.325L212.072 197.892L212.234 197.676L212.307 197.147L212.38 196.617L211.947 195.894L212.255 194.619L212.165 194.305L211.913 194.209L211.245 194.231L210.992 194.134L210.65 193.724L210.722 193.194L211.21 192.545L211.535 192.113L211.698 191.897L211.608 191.583L211.266 191.173L211.176 190.86L210.996 190.234L211.321 189.801L211.556 189.055L211.972 188.936L212.134 188.72L212.64 188.914L212.802 188.698L212.965 188.481L212.875 188.168L211.774 187.467L211.595 186.841L211.505 186.527L212.806 184.797L212.699 183.642L212.771 183.112L213.512 182.56L213.837 182.128L214.163 181.695L214.488 181.263L214.903 181.144L216.384 180.04L217.63 179.682L217.883 179.779L218.135 179.876L218.225 180.189L218.641 180.07L220.464 179.377L221.295 179.138L221.62 178.706L222.524 177.938L223.101 177.602L223.679 177.267L224.095 177.147L224.437 177.557L225.032 178.065L225.285 178.162L225.79 178.356L226.206 178.236L226.368 178.02L226.278 177.707L225.683 177.2L225.846 176.983L226.171 176.551L226.586 176.432L227.092 176.626L229.434 180.869L229.704 181.809L229.631 182.338L229.306 182.771L229.054 182.674L228.386 182.696L227.97 182.815L227.808 183.032L227.482 183.464L227.32 183.68L227.157 183.897L227.084 184.426L227.174 184.739L227.264 185.052L227.607 185.463L229.123 186.044L229.375 186.141L229.302 186.671L229.14 186.887L228.977 187.103L228.815 187.32L229.067 187.417L229.572 187.611L231.323 187.447L231.576 187.544L231.666 187.857L231.503 188.073L231.178 188.506L230.853 188.938L230.69 189.154L230.527 189.371L230.617 189.684L230.87 189.781L233.306 190.437L232.656 191.302L232.746 191.615L232.836 191.929L233.105 192.868L233.285 193.495L233.375 193.808L233.628 193.905L234.043 193.786L234.548 193.98L235.054 194.174L235.144 194.487L234.981 194.703L234.403 195.039L234.24 195.255L233.41 195.493L232.832 195.829L232.759 196.358L232.597 196.575L233.102 196.769L233.354 196.866L233.607 196.963L234.635 198.193L234.977 198.603L234.562 198.723L234.399 198.939L233.894 198.745L233.479 198.864L232.901 199.2L232.233 199.222L231.565 199.244L231.15 199.364L229.814 199.408L229.163 200.273L228.423 200.825L227.935 201.474L227.772 201.69L228.025 201.787L228.963 202.704L229.053 203.017L229.395 203.428L229.322 203.957L229.16 204.173L228.599 205.352L230.115 205.933L231.558 207.045L231.9 207.455L232.568 207.433L233.236 207.41L238.092 207.881L241.611 208.395L242.621 208.783L242.459 209L242.549 209.313L242.639 209.626L243.992 210.424L244.497 210.618L244.912 210.499L244.822 210.186L244.985 209.969L245.31 209.537L246.141 209.298L246.556 209.179L246.971 209.06L246.881 208.747L246.629 208.65L246.791 208.433L247.207 208.314L248.2 207.859L248.615 207.74L248.525 207.427L248.273 207.33L248.183 207.017L248.093 206.703L247.75 206.293L247.66 205.98L247.643 205.137L247.553 204.824L247.463 204.511L247.193 203.571L247.176 202.728L247.086 202.415L247.411 201.983L247.899 201.334L248.314 201.215L248.64 200.782L249.976 200.738L251.384 200.164L251.962 199.828L253.768 198.292L254.544 199.426L255.481 200.343L256.98 200.082L257.16 200.709L257.087 201.238L257.177 201.551L257.52 201.961L258.44 202.036L258.693 202.133L258.783 202.446L258.62 202.663L258.457 202.879L258.71 202.976L258.8 203.289L259.468 203.267L260.136 203.244L260.551 203.125L260.966 203.006L261.544 202.67L261.707 202.454L262.122 202.335L262.375 202.432L262.627 202.529L262.79 202.312L264.558 202.991L264.901 203.401L265.496 203.909L265.676 204.535L265.766 204.848L265.441 205.281L265.026 205.4L264.448 205.736L264.122 206.168L264.05 206.698L264.14 207.011L264.645 207.205L265.06 207.085L265.475 206.966L265.981 207.16L266.323 207.57L266.846 208.607L268.199 209.405L272.331 211.27L276.265 211.665L278.269 211.598L278.684 211.479L279.1 211.36L280.688 211.412L281.193 211.606L281.536 212.016L281.626 212.33L281.318 213.605L281.57 213.702Z" fill="#4D91BB" stroke="white" stroke-width="0.541186" stroke-linejoin="round"/>
<path d="M187.392 241.09L186.056 241.135L185.893 241.351L185.568 241.784L185.405 242L185.243 242.216L184.575 242.239L183.907 242.261L183.744 242.477L183.492 242.38L183.256 243.126L182.696 244.304L182.713 245.147L182.315 246.109L181.339 247.406L180.346 247.861L179.678 247.883L177.332 247.54L176.989 247.13L176.899 246.817L177.044 245.758L177.207 245.541L176.955 245.445L175.709 245.802L173.525 245.243L171.359 245.526L165.87 246.763L164.534 246.808L163.524 246.42L162.676 245.816L161.666 245.428L161.16 245.234L160.98 244.608L161.451 243.116L161.344 241.96L160.659 241.14L159.486 240.968L157.067 241.154L155.893 240.983L154.125 240.304L153.62 240.11L152.935 239.29L152.592 238.88L152.339 238.783L149 238.894L148.585 239.013L148.495 238.7L148.152 238.29L147.9 238.193L147.484 238.312L146.816 238.335L144.633 237.775L142.629 237.842L142.124 237.648L141.781 237.238L140.231 234.971L139.293 234.053L139.708 233.934L139.871 233.718L140.034 233.501L139.944 233.188L139.854 232.875L139.764 232.562L139.837 232.032L140.162 231.6L140.577 231.481L140.74 231.264L141.408 231.242L142.401 230.787L143.214 229.706L144.173 227.566L144.734 226.388L145.132 225.426L145.277 224.367L145.26 223.524L145.17 223.211L144.575 222.704L144.485 222.39L144.395 222.077L144.54 221.018L144.613 220.489L144.433 219.862L145.083 218.997L146.312 217.797L146.637 217.364L146.8 217.148L146.963 216.932L147.288 216.499L147.866 216.164L148.191 215.731L149.184 215.277L150.178 214.822L150.593 214.703L151.676 214.561L152.687 214.949L153.102 214.83L153.265 214.613L153.427 214.397L153.085 213.987L153.663 213.651L154.078 213.532L156.839 213.756L157.165 213.324L157.653 212.675L157.815 212.459L158.141 212.026L158.719 211.691L159.134 211.571L162.961 210.811L163.214 210.908L163.467 211.005L163.647 211.631L163.574 212.161L164.006 212.884L165.197 213.899L165.287 214.212L168.066 215.279L167.903 215.495L168.155 215.592L168.408 215.689L169.744 215.644L171.405 215.167L173.499 215.413L173.661 215.197L173.824 214.981L173.987 214.765L173.897 214.451L174.059 214.235L173.807 214.138L173.969 213.922L174.132 213.706L174.547 213.586L174.71 213.37L174.963 213.467L175.378 213.348L176.046 213.326L176.804 213.616L177.146 214.027L177.236 214.34L177.489 214.437L177.741 214.534L181.603 215.459L182.271 215.437L182.939 215.414L183.282 215.824L183.877 216.332L183.804 216.861L184.147 217.271L184.652 217.465L187.341 218.219L186.943 219.181L186.618 219.613L186.292 220.046L185.877 220.165L185.894 221.008L185.984 221.321L185.244 221.873L184.918 222.305L184.593 222.738L184.43 222.954L184.863 223.677L187.227 224.863L187.732 225.057L188.905 225.229L189.573 225.207L190.656 225.065L191.324 225.043L191.576 225.14L192.424 225.744L193.02 226.251L193.109 226.564L192.947 226.78L192.784 226.997L192.459 227.429L192.296 227.645L192.386 227.959L192.639 228.056L192.891 228.153L193.559 228.13L193.975 228.011L194.57 228.518L194.822 228.615L195.328 228.809L197.241 228.429L200.418 228.534L201.934 229.115L200.47 231.062L200.307 231.278L200.145 231.494L199.314 231.733L198.304 231.345L197.888 231.464L197.726 231.68L197.31 231.8L196.985 232.232L195.594 233.649L194.853 234.201L193.03 234.894L187.631 236.445L187.306 236.877L186.98 237.31L187.07 237.623L187.665 238.13L187.755 238.443L187.845 238.756L187.935 239.07L187.7 239.815L187.392 241.09Z" fill="#4D91BB" stroke="white" stroke-width="0.541186" stroke-linejoin="round"/>
<path d="M266.462 136.837L267.057 137.344L267.074 138.187L266.368 140.424L264.849 143.743L264.451 144.705L264.378 145.234L264.738 146.487L264.918 147.113L264.285 148.821L263.904 150.626L264.679 151.759L270.939 155.556L273.898 157.249L276.081 157.808L277.272 158.823L277.614 159.233L279.545 159.695L279.888 160.106L279.815 160.635L279.182 162.343L279.109 162.872L279.037 163.402L279.992 165.162L280.514 166.198L280.998 169.45L282.386 171.933L281.23 172.604L280.58 173.469L280.254 173.902L279.676 174.237L279.098 174.573L278.43 174.595L277.6 174.834L276.769 175.072L276.444 175.505L275.866 175.84L274.295 176.631L273.554 177.182L271.91 178.502L271.495 178.621L271.243 178.524L270.737 178.331L270.395 177.92L270.142 177.823L269.89 177.726L268.734 178.397L268.318 178.517L266.332 179.426L266.405 178.897L266.567 178.681L266.73 178.464L266.225 178.27L262.778 177.226L262.525 177.129L261.857 177.151L260.106 177.315L260.252 176.256L260.162 175.943L259.909 175.846L259.657 175.749L259.404 175.652L258.826 175.988L258.573 175.891L258.483 175.578L258.394 175.264L258.719 174.832L258.792 174.302L258.612 173.676L255.525 173.884L255.109 174.004L254.532 174.339L254.296 175.085L253.971 175.517L253.718 175.42L253.466 175.323L252.87 174.816L252.618 174.719L252.365 174.622L247.853 174.562L247.095 174.271L246.589 174.077L246.337 173.98L246.499 173.764L246.662 173.548L246.825 173.332L246.645 172.705L246.555 172.392L246.465 172.079L246.628 171.863L246.285 171.452L244.427 170.46L243.254 170.289L242.586 170.311L242.333 170.214L241.323 169.826L241.07 169.729L240.655 169.848L240.492 170.065L240.239 169.968L239.824 170.087L239.571 169.99L239.139 169.267L238.471 169.289L238.218 169.192L237.551 169.214L235.855 168.006L235.367 168.655L235.204 168.871L234.879 169.303L234.969 169.617L235.149 170.243L235.239 170.556L235.076 170.773L234.661 170.892L234.083 171.227L233.83 171.13L233.488 170.72L233.65 170.504L233.398 170.407L232.225 170.235L231.809 170.355L231.899 170.668L232.152 170.765L232.494 171.175L232.422 171.704L232.349 172.234L232.276 172.763L231.951 173.196L231.788 173.412L230.868 173.337L230.29 173.673L229.875 173.792L229.549 174.225L228.899 175.09L228.736 175.306L228.826 175.619L228.501 176.052L227.092 176.626L226.587 176.432L226.172 176.551L225.846 176.984L225.684 177.2L226.279 177.707L226.369 178.02L226.206 178.236L225.791 178.356L225.286 178.162L225.033 178.065L224.438 177.558L224.095 177.147L223.68 177.267L223.102 177.602L222.524 177.938L221.621 178.706L221.296 179.138L220.465 179.377L218.641 180.07L218.226 180.19L218.136 179.876L217.883 179.779L217.631 179.682L216.385 180.04L215.862 179.004L216.26 178.042L216.081 177.415L215.991 177.102L215.125 175.655L214.873 175.558L214.548 175.991L214.385 176.207L214.132 176.11L213.88 176.013L213.284 175.506L213.194 175.193L213.015 174.566L212.925 174.253L212.835 173.94L212.419 174.059L212.004 174.178L210 174.245L209.243 173.954L208.737 173.76L208.485 173.663L208.232 173.566L207.401 173.805L206.734 173.827L206.896 173.611L207.059 173.395L207.547 172.746L208.125 172.41L208.45 171.978L208.36 171.665L208.253 170.509L207.91 170.099L207.893 169.256L207.388 169.062L207.135 168.965L206.72 169.084L206.215 168.89L205.872 168.48L205.782 168.167L206.107 167.734L206.506 166.772L206.668 166.556L206.578 166.243L206.488 165.93L206.236 165.833L205.73 165.639L206.471 165.087L206.886 164.968L207.464 164.632L208.457 164.178L209.198 163.626L209.613 163.506L210.208 164.014L210.624 163.894L211.039 163.775L211.454 163.656L211.96 163.85L212.212 163.947L212.627 163.827L212.953 163.395L213.423 161.904L213.749 161.471L214.164 161.352L214.579 161.232L215.41 160.994L215.573 160.778L216.061 160.129L216.386 159.696L216.947 158.518L217.272 158.086L217.092 157.459L217.255 157.243L217.417 157.027L217.327 156.714L217.49 156.497L217.147 156.087L216.895 155.99L216.715 155.364L217.348 153.656L218.611 154.141L219.027 154.022L219.352 153.589L219.515 153.373L220.092 153.037L220.508 152.918L221.428 152.993L222.511 152.851L223.089 152.516L223.74 151.651L223.903 151.434L224.481 151.099L224.806 150.666L225.294 150.018L225.367 149.488L225.114 149.391L225.024 149.078L224.771 148.981L224.681 148.668L224.502 148.041L224.664 147.825L224.737 147.296L225.713 145.998L225.875 145.782L226.038 145.566L226.453 145.446L226.616 145.23L226.869 145.327L227.121 145.424L227.211 145.737L227.464 145.834L227.879 145.715L228.204 145.283L229.108 144.515L229.848 143.963L231.257 143.389L231.582 142.956L231.907 142.524L232.323 142.404L232.648 141.972L233.226 141.636L233.479 141.733L234.652 141.905L235.23 141.57L235.392 141.353L236.043 140.488L236.206 140.272L236.116 139.959L235.7 140.078L235.448 139.981L235.358 139.668L235.683 139.235L236.008 138.803L236.586 138.467L237.002 138.348L237.327 137.916L237.49 137.699L237.978 137.051L238.898 137.125L243.573 136.969L244.747 137.141L245.594 137.745L246.387 139.721L247.235 140.325L248.57 140.281L250.989 140.095L252.073 139.953L252.65 139.617L256.461 138.015L258.374 137.634L259.71 137.59L263.302 137.575L263.555 137.672L264.15 138.179L264.403 138.276L264.981 137.941L265.306 137.508L265.794 136.86L266.462 136.837Z" fill="#4D91BB" stroke="white" stroke-width="0.541186" stroke-linejoin="round"/>
<path d="M181.778 105.724L182.879 106.425L183.474 106.932L183.997 107.968L184.339 108.379L193.596 111.653L195.292 112.862L194.624 112.884L194.209 113.003L194.046 113.22L193.883 113.436L193.811 113.965L193.901 114.278L193.575 114.711L192.997 115.046L192.419 115.382L191.751 115.404L191.336 115.524L190.994 115.113L190.398 114.606L189.893 114.412L189.478 114.532L188.737 115.083L188.322 115.203L188.159 115.419L187.997 115.635L187.924 116.165L187.599 116.597L187.021 116.933L186.28 117.484L185.612 117.507L183.789 118.2L181.421 120.914L182.269 121.518L182.359 121.832L182.196 122.048L181.619 122.383L181.293 122.816L181.546 122.913L181.798 123.01L181.888 123.323L181.726 123.539L181.653 124.069L181.743 124.382L182.086 124.792L182.338 124.889L184.089 124.725L185.19 125.426L185.695 125.62L186.363 125.598L186.778 125.479L187.193 125.359L188.367 125.531L188.872 125.725L189.377 125.919L189.467 126.232L189.304 126.448L188.726 126.784L188.564 127L188.238 127.433L188.166 127.962L188.346 128.589L187.678 128.611L187.173 128.417L187.01 128.633L186.847 128.849L186.595 128.752L184.754 128.603L184.338 128.722L184.013 129.155L183.778 129.901L183.29 130.549L182.964 130.982L182.549 131.101L181.718 131.34L181.303 131.459L181.141 131.675L181.231 131.988L181.158 132.518L181.085 133.047L181.59 133.241L181.843 133.338L182.258 133.219L182.674 133.1L182.836 132.883L183.251 132.764L183.341 133.077L183.269 133.607L183.196 134.136L183.701 134.33L183.539 134.547L183.376 134.763L183.123 134.666L182.293 134.904L182.22 135.434L180.559 135.911L179.24 136.798L178.663 137.134L177.995 137.156L177.742 137.059L177.074 137.081L176.659 137.201L176.333 137.633L175.846 138.282L175.358 138.931L174.69 138.953L174.274 139.072L173.606 139.094L173.101 138.901L172.686 139.02L172.271 139.139L171.693 139.475L171.71 140.317L171.385 140.75L170.897 141.399L170.571 141.831L169.993 142.167L170.083 142.48L169.433 143.345L169.107 143.777L168.692 143.897L168.44 143.8L166.778 144.277L164.342 143.62L164.09 143.523L163.747 143.113L163.494 143.016L162.737 142.725L162.484 142.628L161.799 141.808L161.041 141.517L158.352 140.763L157.016 140.808L156.186 141.047L155.933 140.95L155.428 140.756L155.175 140.659L154.923 140.562L154.67 140.465L154.507 140.681L154.092 140.8L153.767 141.233L153.604 141.449L153.441 141.665L153.279 141.881L152.863 142.001L151.618 142.359L151.202 142.478L150.86 142.068L150.607 141.971L146.745 141.046L146.205 139.166L146.008 137.697L146.171 137.481L146.081 137.168L146.154 136.638L146.316 136.422L146.552 135.676L146.714 135.46L146.877 135.244L146.77 134.088L146.932 133.872L147.51 133.536L147.673 133.32L147.836 133.104L147.998 132.887L148.161 132.671L148.324 132.455L148.234 132.142L147.728 131.948L146.808 131.873L145.382 131.604L144.877 131.41L144.624 131.313L144.372 131.216L144.282 130.903L144.697 130.784L144.86 130.568L145.275 130.448L145.438 130.232L145.348 129.919L145.258 129.606L145.33 129.076L145.656 128.644L145.818 128.428L145.981 128.211L145.728 128.114L144.898 128.353L144.392 128.159L143.977 128.278L142.877 127.577L143.039 127.361L143.202 127.145L143.365 126.928L143.78 126.809L144.611 126.571L147.102 125.855L147.518 125.736L148.348 125.497L148.511 125.281L148.836 124.848L148.746 124.535L148.729 123.692L148.891 123.476L148.964 122.947L149.29 122.514L151.006 120.665L150.916 120.352L151.241 119.919L151.404 119.703L151.567 119.487L152.235 119.464L153.155 119.539L153.57 119.42L154.148 119.084L156.46 117.742L157.363 116.974L159.855 116.259L160.108 116.356L161.533 116.624L161.786 116.721L162.201 116.602L162.617 116.483L163.032 116.363L163.7 116.341L165.215 116.923L165.631 116.804L165.883 116.901L167.78 115.678L168.52 115.126L168.936 115.007L169.261 114.574L169.839 114.239L170.254 114.119L170.507 114.216L170.759 114.313L171.175 114.194L171.59 114.075L171.663 113.545L172.206 111.524L172.116 111.211L172.189 110.682L172.262 110.152L172.587 109.72L173.238 108.855L173.31 108.325L173.383 107.796L173.13 107.699L173.203 107.169L173.366 106.953L173.944 106.618L174.106 106.401L175.695 106.454L176.11 106.335L176.688 105.999L177.356 105.977L181.778 105.724Z" fill="#4D91BB" stroke="white" stroke-width="0.541186" stroke-linejoin="round"/>
<path d="M138.254 109.918L139.59 109.873L141.358 110.552L142.784 110.82L143.94 110.149L145.168 108.949L146.812 107.629L148.383 106.839L150.044 106.362L151.706 105.885L153.041 105.84L154.304 106.325L154.972 106.303L157.969 105.781L161.381 105.14L162.717 105.095L165.659 105.946L167.5 106.095L176.688 105.999L176.11 106.335L175.694 106.454L174.106 106.401L173.943 106.618L173.365 106.953L173.203 107.169L173.13 107.699L173.383 107.796L173.31 108.325L173.237 108.855L172.587 109.72L172.261 110.152L172.189 110.682L172.116 111.211L172.206 111.524L171.662 113.545L171.59 114.075L171.175 114.194L170.759 114.313L170.507 114.216L170.254 114.119L169.839 114.239L169.261 114.574L168.935 115.007L168.52 115.126L167.78 115.678L165.883 116.901L165.631 116.804L165.215 116.923L163.7 116.341L163.032 116.363L162.616 116.483L162.201 116.602L161.786 116.721L161.533 116.624L160.107 116.356L159.855 116.259L157.363 116.974L156.46 117.742L154.148 119.084L153.57 119.42L153.155 119.539L152.234 119.465L151.566 119.487L151.404 119.703L151.241 119.919L150.916 120.352L151.006 120.665L149.289 122.514L148.964 122.947L148.891 123.476L148.729 123.692L148.746 124.535L148.836 124.848L148.511 125.281L148.348 125.497L147.517 125.736L147.102 125.855L144.61 126.571L143.78 126.809L143.365 126.928L143.202 127.145L143.039 127.361L142.877 127.577L143.977 128.278L144.392 128.159L144.897 128.353L145.728 128.114L145.981 128.211L145.818 128.428L145.655 128.644L145.33 129.076L145.257 129.606L145.347 129.919L145.437 130.232L145.275 130.449L144.859 130.568L144.697 130.784L144.281 130.903L144.371 131.217L144.624 131.314L144.877 131.41L145.382 131.604L146.808 131.873L147.728 131.948L148.233 132.142L148.323 132.455L148.161 132.671L147.998 132.887L147.835 133.104L147.673 133.32L147.51 133.536L146.932 133.872L146.769 134.088L146.877 135.244L146.714 135.46L146.551 135.676L146.316 136.422L146.153 136.638L146.081 137.168L146.171 137.481L146.008 137.697L146.205 139.166L146.745 141.046L146.672 141.575L146.257 141.694L146.094 141.911L145.679 142.03L143.675 142.097L143.35 142.529L143.693 142.939L143.53 143.156L142.644 144.766L142.319 145.199L142.499 145.825L142.588 146.139L141.304 148.711L141.394 149.024L141.9 149.218L142.73 148.98L142.983 149.077L143.073 149.39L143.253 150.016L144.191 150.934L145.038 151.538L145.128 151.851L144.803 152.284L144.135 152.306L143.159 153.603L142.581 153.939L141.913 153.961L141.083 154.2L137.183 155.49L136.442 156.041L136.117 156.474L136.459 156.884L137.217 157.175L139.435 159.42L139.525 159.733L139.453 160.262L139.055 161.224L138.909 162.283L138.584 162.716L138.421 162.932L137.681 163.484L137.771 163.797L138.023 163.894L138.438 163.775L139.522 163.633L140.442 163.708L140.785 164.118L141.037 164.215L141.217 164.842L141.307 165.155L141.812 165.349L142.318 165.543L142.57 165.64L142.823 165.737L142.913 166.05L143.166 166.147L143.581 166.027L143.761 166.654L143.688 167.183L143.273 167.303L142.695 167.638L142.369 168.071L141.376 168.525L141.214 168.742L140.4 169.823L140.058 169.413L136.123 169.017L135.455 169.039L134.877 169.375L134.047 169.613L133.289 169.323L132.694 168.815L132.261 168.092L132.659 167.13L133.147 166.481L133.472 166.049L133.13 165.639L132.372 165.348L131.289 165.489L130.873 165.609L130.783 165.295L130.351 164.572L129.503 163.968L128.908 163.461L128.548 162.208L126.852 160.999L126.51 160.589L126.493 159.747L125.358 157.36L124.672 156.54L121.388 155.279L121.029 154.026L121.375 150.536L120.852 149.5L120.094 149.209L116.267 149.969L116.43 149.753L117.243 148.671L117.406 148.455L117.821 148.336L118.073 148.433L118.651 148.097L118.977 147.665L119.049 147.135L119.122 146.606L119.032 146.293L118.942 145.98L119.267 145.547L120.081 144.466L119.828 144.369L117.084 144.987L116.994 144.674L117.157 144.458L120.046 142.78L120.624 142.445L121.455 142.206L122.431 140.909L123.227 138.985L123.95 137.59L124.275 137.158L124.185 136.845L124.095 136.532L124.168 136.002L124.493 135.57L124.819 135.137L125.144 134.705L125.307 134.488L125.795 133.84L126.483 130.76L126.719 130.014L127.369 129.149L127.605 128.403L127.643 126.189L127.716 125.659L127.463 125.562L127.536 125.033L128.349 123.951L128.494 122.892L131.17 118.903L132.634 116.957L133.122 116.308L133.862 115.756L134.187 115.324L137.115 111.431L138.254 109.918Z" fill="#4D91BB" stroke="white" stroke-width="0.541186" stroke-linejoin="round"/>
<path d="M108.744 145.688L107.049 144.479L111.925 141.892L115.14 139.782L119.168 136.591L122.348 132.795L123.252 132.027L123.162 131.714L123.74 131.379L124.138 130.417L126.252 127.605L126.976 126.211L127.173 127.68L126.214 129.82L123.124 133.929L122.636 134.578L121.895 135.129L121.407 135.778L120.106 137.508L119.113 137.963L118.119 138.418L117.469 139.283L117.486 140.125L117.323 140.342L116.493 140.58L115.337 141.251L114.018 142.139L113.115 142.907L112.212 143.675L109.395 144.823L108.744 145.688Z" fill="#4D91BB" stroke="white" stroke-width="0.541186" stroke-linejoin="round"/>
<path d="M206.625 115.54L207.148 116.577L206.93 118.165L206.151 120.932L207.016 122.379L208.857 122.528L211.349 121.812L211.422 121.283L212.252 121.044L216.277 121.753L216.782 121.947L218.405 123.685L220.623 125.93L221.634 126.318L224.053 126.131L225.226 126.303L227.499 127.176L228.257 127.467L228.51 127.564L228.437 128.093L228.274 128.309L227.949 128.742L228.797 129.346L231.143 129.689L232.154 130.077L232.496 130.487L235.13 132.613L236.445 135.626L237.13 136.446L237.978 137.05L237.49 137.699L237.327 137.915L237.002 138.348L236.586 138.467L236.008 138.803L235.683 139.235L235.358 139.668L235.448 139.981L235.7 140.078L236.116 139.959L236.206 140.272L236.043 140.488L235.392 141.353L235.23 141.569L234.652 141.905L233.479 141.733L233.226 141.636L232.648 141.972L232.323 142.404L231.907 142.524L231.582 142.956L231.257 143.389L229.848 143.963L229.108 144.514L228.204 145.282L227.879 145.715L227.464 145.834L227.211 145.737L227.121 145.424L226.869 145.327L226.616 145.23L226.453 145.446L226.038 145.566L225.875 145.782L225.713 145.998L224.737 147.296L224.664 147.825L224.501 148.041L224.681 148.668L224.771 148.981L225.024 149.078L225.114 149.391L225.367 149.488L225.294 150.018L224.806 150.666L224.481 151.099L223.903 151.434L223.74 151.651L223.089 152.516L222.511 152.851L221.428 152.993L220.508 152.918L220.092 153.037L219.514 153.373L219.352 153.589L219.027 154.021L218.611 154.141L217.348 153.656L216.715 155.364L216.895 155.99L217.147 156.087L217.49 156.497L217.327 156.713L217.417 157.027L217.255 157.243L217.092 157.459L217.272 158.086L216.946 158.518L216.386 159.696L216.061 160.129L215.573 160.778L215.41 160.994L214.579 161.232L214.164 161.352L213.749 161.471L213.423 161.903L212.953 163.395L212.627 163.827L212.212 163.947L211.96 163.85L211.454 163.656L211.039 163.775L210.624 163.894L210.208 164.013L209.613 163.506L209.198 163.626L208.457 164.177L207.464 164.632L206.886 164.968L206.471 165.087L205.73 165.639L200.387 165.817L198.221 166.1L197.39 166.339L196.812 166.674L195.819 167.129L195.404 167.248L195.314 166.935L194.971 166.525L194.213 166.234L194.359 165.175L194.774 165.056L194.937 164.84L195.352 164.72L195.93 164.385L195.84 164.072L195.245 163.564L195.317 163.035L195.065 162.938L194.975 162.625L194.56 162.744L194.307 162.647L194.144 162.863L193.892 162.766L193.476 162.886L193.224 162.789L192.809 162.908L192.646 163.124L192.483 163.34L192.068 163.46L191.563 163.266L190.878 162.445L190.282 161.938L189.31 159.336L187.144 159.619L186.728 159.738L186.223 159.544L185.971 159.447L186.296 159.015L186.531 158.269L186.441 157.956L186.351 157.642L185.846 157.448L185.088 157.158L183.157 156.695L182.489 156.717L181.081 157.291L180.755 157.724L180.34 157.843L179.925 157.962L178.426 158.223L172.488 157.895L171.73 157.604L171.64 157.29L171.966 156.858L172.128 156.642L172.038 156.328L171.533 156.134L169.349 155.575L167.093 155.545L165.595 155.806L165.162 155.082L165.723 153.904L167.131 153.33L167.294 153.114L167.041 153.017L166.951 152.704L166.827 150.705L166.737 150.392L165.872 148.945L165.782 148.632L165.855 148.102L165.927 147.573L166.253 147.14L166.415 146.924L166.578 146.708L166.993 146.589L166.903 146.275L166.561 145.865L166.381 145.239L166.543 145.022L166.616 144.493L166.779 144.277L168.44 143.8L168.692 143.897L169.108 143.777L169.433 143.345L170.084 142.48L169.994 142.167L170.572 141.831L170.897 141.399L171.385 140.75L171.71 140.317L171.693 139.475L172.271 139.139L172.686 139.02L173.101 138.901L173.607 139.095L174.275 139.072L174.69 138.953L175.358 138.931L175.846 138.282L176.334 137.633L176.659 137.201L177.074 137.081L177.742 137.059L177.995 137.156L178.663 137.134L179.241 136.798L180.559 135.911L182.22 135.434L182.293 134.904L183.124 134.666L183.376 134.763L183.539 134.547L183.701 134.33L183.196 134.136L183.269 133.607L183.342 133.078L183.252 132.764L182.836 132.884L182.674 133.1L182.258 133.219L181.843 133.338L181.591 133.241L181.085 133.047L181.158 132.518L181.231 131.989L181.141 131.675L181.303 131.459L181.719 131.34L182.549 131.101L182.965 130.982L183.29 130.549L183.778 129.901L184.013 129.155L184.338 128.723L184.754 128.603L186.595 128.753L186.847 128.85L187.01 128.633L187.173 128.417L187.678 128.611L188.346 128.589L188.166 127.962L188.239 127.433L188.564 127L188.727 126.784L189.305 126.449L189.467 126.232L189.377 125.919L188.872 125.725L188.367 125.531L187.194 125.36L186.778 125.479L186.363 125.598L185.695 125.62L185.19 125.426L184.089 124.725L182.338 124.889L182.086 124.792L181.743 124.382L181.653 124.069L181.726 123.539L181.889 123.323L181.799 123.01L181.546 122.913L181.293 122.816L181.619 122.383L182.197 122.048L182.359 121.832L182.269 121.518L181.422 120.914L183.789 118.2L185.612 117.507L186.28 117.484L187.021 116.933L187.599 116.597L187.924 116.165L187.997 115.635L188.16 115.419L188.322 115.203L188.738 115.083L189.478 114.532L189.893 114.412L190.399 114.606L190.994 115.113L191.336 115.524L191.752 115.404L192.42 115.382L192.998 115.047L193.575 114.711L193.901 114.279L193.811 113.965L193.884 113.436L194.046 113.22L194.209 113.003L194.624 112.884L195.292 112.862L195.725 113.585L196.174 115.151L196.517 115.561L197.022 115.755L202.455 115.89L204.206 115.726L205.452 115.369L206.625 115.54Z" fill="#4D91BB" stroke="white" stroke-width="0.541186" stroke-linejoin="round"/>
<path d="M137.26 208.191L137.007 208.094L135.474 206.669L135.132 206.259L134.048 206.401L132.315 207.407L131.647 207.43L131.578 204.059L132.121 202.038L133.17 200.211L136.025 196.848L138.247 195.193L138.897 194.328L139.223 193.895L140.036 192.814L140.361 192.382L140.687 191.949L142.095 191.375L142.005 191.062L142.168 190.846L142.33 190.629L142.746 190.51L142.998 190.607L143.414 190.488L144.081 190.465L144.497 190.346L145.49 189.891L146.988 189.631L147.566 189.295L148.56 188.84L149.21 187.975L149.861 187.11L150.657 185.186L150.892 184.441L150.712 183.814L149.432 182.487L149.505 181.957L150.335 181.719L149.993 181.308L149.903 180.995L149.975 180.466L149.885 180.153L149.633 180.056L147.864 179.377L147.774 179.064L147.757 178.221L148.155 177.259L149.277 174.902L149.422 173.844L149.332 173.53L150.415 173.389L150.505 173.702L150.938 174.425L151.443 174.619L154.294 175.157L155.468 175.328L155.883 175.209L157.724 175.358L159.402 175.724L160.593 176.738L161.261 176.716L162.091 176.477L162.759 176.455L163.932 176.627L172.393 181.825L175.335 182.676L175.677 183.086L176.38 184.749L177.137 185.04L177.895 185.331L178.401 185.525L178.58 186.151L178.508 186.681L178.182 187.113L177.93 187.016L177.515 187.135L177.262 187.039L177.009 186.942L176.757 186.845L176.594 187.061L176.179 187.18L175.601 187.516L175.186 187.635L174.77 187.754L174.518 187.657L174.265 187.56L173.002 187.075L172.749 186.978L172.334 187.098L172.081 187.001L171.666 187.12L171.088 187.455L170.926 187.672L171.016 187.985L172.116 188.686L172.296 189.312L172.386 189.626L171.427 191.766L172.348 191.841L173.268 191.915L173.773 192.109L174.116 192.519L174.386 193.459L174.818 194.182L174.746 194.712L174.583 194.928L174.42 195.144L174.258 195.361L174.095 195.577L173.607 196.226L173.697 196.539L173.534 196.755L173.299 197.501L172.794 197.307L172.631 197.523L172.469 197.739L172.053 197.859L171.475 198.194L171.313 198.41L171.403 198.724L171.818 198.604L171.908 198.918L171.998 199.231L171.673 199.663L171.347 200.096L171.437 200.409L171.364 200.938L171.202 201.155L170.714 201.803L169.755 203.944L169.43 204.376L168.852 204.712L168.437 204.831L167.516 204.756L167.101 204.875L166.686 204.995L166.523 205.211L166.613 205.524L166.865 205.621L166.703 205.837L166.955 205.934L167.388 206.658L167.478 206.971L167.315 207.187L166.9 207.307L166.485 207.426L166.159 207.858L165.997 208.075L166.087 208.388L166.267 209.014L166.447 209.641L166.537 209.954L166.626 210.267L167.547 210.342L167.384 210.558L167.474 210.871L167.004 212.363L166.678 212.795L166.353 213.228L165.938 213.347L165.775 213.563L165.197 213.899L164.007 212.884L163.574 212.161L163.647 211.632L163.467 211.005L163.214 210.908L162.962 210.811L159.134 211.571L158.719 211.691L158.141 212.026L157.816 212.459L157.653 212.675L157.165 213.324L156.84 213.756L154.078 213.532L153.663 213.651L153.085 213.987L153.428 214.397L153.265 214.613L153.102 214.83L152.687 214.949L151.676 214.561L150.593 214.703L150.178 214.822L149.185 215.277L148.192 215.731L147.866 216.164L147.288 216.499L146.963 216.932L146.8 217.148L146.638 217.364L146.312 217.797L145.084 218.997L144.433 219.862L144.001 219.139L142.125 217.304L141.603 216.268L140.81 214.291L140.215 213.784L139.547 213.807L138.627 213.732L137.869 213.441L137.851 212.598L138.177 212.166L138.917 211.614L139.243 211.182L139.405 210.965L138.142 210.48L138.052 210.167L137.962 209.854L138.288 209.422L138.36 208.892L138.27 208.579L138.018 208.482L137.26 208.191Z" fill="#4D91BB" stroke="white" stroke-width="0.541186" stroke-linejoin="round"/>
<path d="M149.332 173.53L149.242 173.217L148.809 172.494L145.127 172.195L140.4 169.823L141.214 168.742L141.376 168.525L142.369 168.071L142.695 167.638L143.273 167.303L143.688 167.183L143.761 166.654L143.581 166.027L143.165 166.147L142.913 166.05L142.823 165.737L142.57 165.64L142.318 165.543L141.812 165.349L141.307 165.155L141.217 164.841L141.037 164.215L140.785 164.118L140.442 163.708L139.522 163.633L138.438 163.775L138.023 163.894L137.77 163.797L137.68 163.484L138.421 162.932L138.584 162.716L138.909 162.283L139.054 161.224L139.452 160.262L139.525 159.733L139.435 159.42L137.217 157.175L136.459 156.884L136.117 156.474L136.442 156.041L137.182 155.49L141.083 154.2L141.913 153.961L142.581 153.939L143.159 153.603L144.135 152.306L144.803 152.284L145.128 151.851L145.038 151.538L144.19 150.934L143.253 150.016L143.073 149.39L142.983 149.077L142.73 148.98L141.9 149.218L141.394 149.024L141.304 148.711L142.588 146.139L142.498 145.825L142.318 145.199L142.644 144.766L143.53 143.156L143.692 142.939L143.35 142.529L143.675 142.097L145.679 142.03L146.094 141.911L146.257 141.694L146.672 141.575L146.745 141.046L150.607 141.971L150.859 142.068L151.202 142.478L151.617 142.359L152.863 142.001L153.278 141.881L153.441 141.665L153.604 141.449L153.766 141.233L154.092 140.8L154.507 140.681L154.67 140.465L154.922 140.562L155.175 140.659L155.427 140.756L155.933 140.95L156.185 141.047L157.016 140.808L158.352 140.763L161.041 141.517L161.798 141.808L162.484 142.628L162.736 142.725L163.494 143.016L163.747 143.113L164.089 143.523L164.342 143.62L166.778 144.277L166.615 144.493L166.543 145.022L166.38 145.239L166.56 145.865L166.903 146.275L166.993 146.588L166.577 146.708L166.415 146.924L166.252 147.14L165.927 147.573L165.854 148.102L165.781 148.632L165.871 148.945L166.736 150.392L166.826 150.705L166.951 152.704L167.041 153.017L167.293 153.114L167.131 153.33L165.722 153.904L165.162 155.082L165.594 155.806L165.539 157.178L165.466 157.707L165.809 158.117L166.404 158.625L166.494 158.938L166.331 159.154L165.753 159.49L165.68 160.019L165.86 160.645L166.113 160.742L166.366 160.839L166.871 161.033L167.123 161.13L167.376 161.227L167.303 161.757L167.141 161.973L166.815 162.406L166.075 162.957L166.002 163.487L165.839 163.703L165.767 164.232L166.199 164.956L166.379 165.582L166.217 165.799L165.891 166.231L165.981 166.544L166.234 166.641L166.649 166.522L166.812 166.306L167.064 166.403L167.227 166.186L167.48 166.283L167.895 166.164L168.058 165.948L168.31 166.045L168.473 165.829L168.725 165.926L168.888 165.709L169.051 165.493L169.213 165.277L169.466 165.374L169.303 165.59L169.646 166L170.528 168.29L170.366 168.506L169.788 168.842L169.21 169.177L169.047 169.393L169.137 169.707L169.895 169.997L171.068 170.169L171.321 170.266L171.483 170.05L171.899 169.931L172.151 170.028L172.404 170.124L172.747 170.535L173.252 170.729L173.667 170.609L173.92 170.706L174.335 170.587L174.588 170.684L174.84 170.781L175.02 171.407L174.947 171.937L174.622 172.369L174.712 172.683L175.055 173.093L177.076 173.869L178.249 174.04L178.754 174.234L178.934 174.861L178.771 175.077L178.861 175.39L179.114 175.487L181.045 175.95L181.803 176.24L181.82 177.083L180.827 177.538L180.501 177.97L180.176 178.403L179.525 179.268L179.2 179.7L178.875 180.133L178.46 180.252L177.719 180.804L176.726 181.259L175.335 182.676L172.393 181.825L163.932 176.626L162.759 176.455L162.091 176.477L161.26 176.716L160.593 176.738L159.402 175.724L157.724 175.358L155.883 175.209L155.467 175.328L154.294 175.156L151.443 174.619L150.938 174.425L150.505 173.702L150.415 173.389L149.332 173.53Z" fill="#4D91BB" stroke="white" stroke-width="0.541186" stroke-linejoin="round"/>
<path d="M216.385 180.04L214.903 181.144L214.488 181.263L214.163 181.695L213.838 182.128L213.512 182.56L212.772 183.112L212.699 183.642L212.806 184.798L211.505 186.528L211.595 186.841L211.775 187.467L212.875 188.168L212.965 188.482L212.803 188.698L212.64 188.914L212.135 188.72L211.972 188.936L211.557 189.056L211.321 189.801L210.996 190.234L211.176 190.86L211.266 191.173L211.609 191.584L211.698 191.897L211.536 192.113L211.21 192.546L210.723 193.194L210.65 193.724L210.992 194.134L211.245 194.231L211.913 194.209L212.166 194.306L212.256 194.619L211.947 195.894L212.38 196.617L212.307 197.147L212.235 197.676L212.072 197.893L211.747 198.325L211.494 198.228L211.079 198.347L210.411 198.37L209.996 198.489L209.58 198.608L208.912 198.631L208.75 198.847L208.497 198.75L208.172 199.182L207.757 199.302L206.601 199.973L206.853 200.07L206.781 200.599L207.808 201.83L208.601 203.806L208.943 204.216L210.044 204.917L210.549 205.111L210.729 205.738L210.836 206.894L210.926 207.207L209.428 207.468L208.272 208.139L207.441 208.377L205.022 208.563L204.354 208.586L203.939 208.705L203.614 209.137L202.71 209.905L202.133 210.241L201.807 210.674L201.229 211.009L200.904 211.442L200.579 211.874L200.253 212.307L199.838 212.426L199.333 212.232L198.485 211.628L198.232 211.531L197.817 211.65L197.239 211.986L195.651 211.933L194.983 211.955L194.405 212.291L193.827 212.627L193.917 212.94L193.592 213.372L193.266 213.805L193.356 214.118L192.778 214.453L192.958 215.08L192.796 215.296L192.633 215.512L192.47 215.729L192.145 216.161L191.567 216.497L191.314 216.4L190.899 216.519L190.809 216.206L190.557 216.109L190.304 216.012L189.889 216.131L189.563 216.564L188.497 217.548L188.335 217.764L188.172 217.98L187.342 218.219L184.653 217.465L184.147 217.271L183.805 216.861L183.878 216.332L183.282 215.825L182.94 215.414L182.272 215.437L181.604 215.459L177.742 214.534L177.489 214.437L177.237 214.34L177.147 214.027L176.804 213.617L176.046 213.326L175.378 213.348L174.963 213.467L174.711 213.37L174.548 213.587L174.133 213.706L173.97 213.922L173.807 214.138L174.06 214.235L173.897 214.452L173.987 214.765L173.825 214.981L173.662 215.197L173.499 215.413L171.406 215.167L169.744 215.644L168.409 215.689L168.156 215.592L167.903 215.495L168.066 215.279L165.287 214.212L165.197 213.899L165.775 213.563L165.938 213.347L166.353 213.228L166.678 212.795L167.004 212.363L167.475 210.871L167.385 210.558L167.547 210.342L166.627 210.267L166.537 209.954L166.447 209.641L166.267 209.014L166.087 208.388L165.997 208.075L166.16 207.858L166.485 207.426L166.9 207.307L167.315 207.187L167.478 206.971L167.388 206.658L166.956 205.934L166.703 205.838L166.866 205.621L166.613 205.524L166.523 205.211L166.686 204.995L167.101 204.876L167.516 204.756L168.437 204.831L168.852 204.712L169.43 204.376L169.755 203.944L170.714 201.803L171.202 201.155L171.365 200.939L171.437 200.409L171.347 200.096L171.673 199.663L171.998 199.231L171.908 198.918L171.818 198.604L171.403 198.724L171.313 198.41L171.476 198.194L172.053 197.859L172.469 197.739L172.631 197.523L172.794 197.307L173.299 197.501L173.535 196.755L173.697 196.539L173.607 196.226L174.095 195.577L174.258 195.361L174.421 195.144L174.583 194.928L174.746 194.712L174.819 194.182L174.386 193.459L174.116 192.519L173.774 192.109L173.268 191.915L172.348 191.841L171.427 191.766L172.386 189.626L172.296 189.313L172.116 188.686L171.016 187.985L170.926 187.672L171.088 187.456L171.666 187.12L172.082 187.001L172.334 187.098L172.75 186.978L173.002 187.075L174.265 187.56L174.518 187.657L174.77 187.754L175.186 187.635L175.601 187.516L176.179 187.18L176.594 187.061L176.757 186.845L177.01 186.942L177.262 187.039L177.515 187.136L177.93 187.016L178.183 187.113L178.508 186.681L178.581 186.151L178.401 185.525L177.896 185.331L177.138 185.04L176.38 184.749L175.677 183.086L175.335 182.676L176.726 181.259L177.719 180.804L178.46 180.252L178.875 180.133L179.2 179.701L179.526 179.268L180.176 178.403L180.502 177.971L180.827 177.538L181.82 177.083L181.803 176.241L181.045 175.95L179.114 175.487L178.861 175.39L178.772 175.077L178.934 174.861L178.754 174.234L178.249 174.04L177.076 173.869L175.055 173.093L174.712 172.683L174.622 172.37L174.948 171.937L175.02 171.408L174.84 170.781L174.588 170.684L174.335 170.587L173.92 170.707L173.667 170.61L173.252 170.729L172.747 170.535L172.404 170.125L172.152 170.028L171.899 169.931L171.484 170.05L171.321 170.266L171.068 170.169L169.895 169.998L169.137 169.707L169.047 169.394L169.21 169.177L169.788 168.842L170.366 168.506L170.529 168.29L169.646 166.001L169.304 165.59L169.466 165.374L169.214 165.277L169.051 165.493L168.888 165.71L168.726 165.926L168.473 165.829L168.31 166.045L168.058 165.948L167.895 166.164L167.48 166.284L167.227 166.187L167.065 166.403L166.812 166.306L166.649 166.522L166.234 166.642L165.981 166.545L165.892 166.231L166.217 165.799L166.379 165.583L166.2 164.956L165.767 164.233L165.84 163.703L166.002 163.487L166.075 162.958L166.816 162.406L167.141 161.973L167.304 161.757L167.376 161.228L167.124 161.131L166.871 161.034L166.366 160.84L166.113 160.743L165.861 160.646L165.681 160.019L165.753 159.49L166.331 159.154L166.494 158.938L166.404 158.625L165.809 158.118L165.466 157.708L165.539 157.178L165.594 155.806L167.093 155.545L169.349 155.575L171.533 156.135L172.038 156.329L172.128 156.642L171.965 156.858L171.64 157.291L171.73 157.604L172.488 157.895L178.426 158.223L179.925 157.963L180.34 157.843L180.755 157.724L181.081 157.292L182.489 156.717L183.157 156.695L185.088 157.158L185.846 157.449L186.351 157.643L186.441 157.956L186.531 158.269L186.296 159.015L185.97 159.447L186.223 159.544L186.728 159.738L187.143 159.619L189.31 159.336L190.282 161.938L190.877 162.446L191.562 163.266L192.068 163.46L192.483 163.341L192.646 163.124L192.808 162.908L193.224 162.789L193.476 162.886L193.891 162.767L194.144 162.864L194.307 162.647L194.559 162.744L194.975 162.625L195.065 162.938L195.317 163.035L195.245 163.565L195.84 164.072L195.93 164.385L195.352 164.721L194.936 164.84L194.774 165.056L194.359 165.175L194.213 166.234L194.971 166.525L195.314 166.935L195.404 167.249L195.819 167.129L196.812 166.674L197.39 166.339L198.221 166.1L200.387 165.817L205.73 165.639L206.235 165.833L206.488 165.93L206.578 166.243L206.668 166.556L206.505 166.772L206.107 167.734L205.782 168.167L205.872 168.48L206.214 168.89L206.72 169.084L207.135 168.965L207.388 169.062L207.893 169.256L207.91 170.099L208.253 170.509L208.36 171.665L208.45 171.978L208.125 172.41L207.547 172.746L207.059 173.395L206.896 173.611L206.733 173.827L207.401 173.805L208.232 173.566L208.484 173.663L208.737 173.76L209.242 173.954L210 174.245L212.004 174.178L212.419 174.059L212.834 173.94L212.924 174.253L213.014 174.566L213.194 175.192L213.284 175.506L213.879 176.013L214.132 176.11L214.385 176.207L214.547 175.991L214.873 175.558L215.125 175.655L215.99 177.102L216.08 177.415L216.26 178.042L215.862 179.003L216.385 180.04Z" fill="#4D91BB" stroke="white" stroke-width="0.541186" stroke-linejoin="round"/>
</g>
<rect width="64.4226" height="29.0355" rx="7.25888" transform="matrix(0.93358 0.358368 -0.601118 0.79916 170.447 39.2383)" fill="#4D91BB"/>
<rect width="68.052" height="29.0355" rx="7.25888" transform="matrix(0.93358 0.358368 -0.601118 0.79916 238.215 65.2519)" fill="#4D91BB"/>
<rect width="68.052" height="29.0355" rx="7.25888" transform="matrix(0.93358 0.358368 -0.601118 0.79916 308.685 91.3906)" fill="#4D91BB"/>
<path d="M181.951 59.6127L178.393 58.247L176.631 59.3874L175.269 58.8645L183.053 54.0026L184.354 54.5021L182.984 61.8262L181.602 61.2955L181.951 59.6127ZM182.181 58.5574L182.842 55.3796L179.508 57.5311L182.181 58.5574ZM187.962 58.6232C188.694 58.2763 189.521 58.2798 190.443 58.6336L189.664 59.6691C189.569 59.6101 189.477 59.5636 189.389 59.5298C188.894 59.3399 188.414 59.3164 187.948 59.4592C187.487 59.5961 187.082 59.8967 186.733 60.3608L185.038 62.6145L183.767 62.1267L187.262 57.4801L188.472 57.9444L187.962 58.6232ZM194.767 63.3888C194.711 63.4642 194.623 63.5689 194.505 63.7029L190.246 62.068C190.063 62.4388 190.051 62.7856 190.21 63.1083C190.38 63.4278 190.699 63.6773 191.167 63.8568C191.763 64.0857 192.381 64.1061 193.02 63.9179L193.197 64.8494C192.766 65.0052 192.315 65.0753 191.847 65.0599C191.378 65.0444 190.91 64.947 190.442 64.7675C189.846 64.5385 189.397 64.2354 189.096 63.8581C188.794 63.4808 188.654 63.0642 188.673 62.6082C188.704 62.1491 188.892 61.6904 189.237 61.2321C189.577 60.7797 190.001 60.4191 190.509 60.1505C191.028 59.8787 191.577 59.7232 192.157 59.6841C192.736 59.6449 193.294 59.7281 193.829 59.9336C194.358 60.1365 194.753 60.4188 195.013 60.7805C195.285 61.139 195.399 61.5453 195.354 61.9992C195.321 62.4499 195.125 62.9131 194.767 63.3888ZM193.175 60.8037C192.768 60.6477 192.344 60.6194 191.902 60.719C191.472 60.8154 191.097 61.023 190.779 61.3418L193.859 62.5242C194.058 62.1669 194.097 61.8305 193.976 61.515C193.855 61.1995 193.588 60.9624 193.175 60.8037ZM199.719 62.1945C200.519 62.5015 201.004 62.9009 201.176 63.3929C201.358 63.8816 201.201 64.4566 200.704 65.118L198.655 67.8415L197.455 67.3811L197.881 66.8155C197.572 66.9587 197.231 67.0295 196.857 67.0278C196.493 67.023 196.109 66.9425 195.702 66.7865C195.295 66.6304 194.983 66.4358 194.765 66.2027C194.552 65.9638 194.439 65.7075 194.427 65.4336C194.426 65.1565 194.526 64.8846 194.726 64.6177C195.04 64.2 195.471 63.9354 196.018 63.8238C196.576 63.7091 197.244 63.8013 198.024 64.1004L199.426 64.6389L199.479 64.5693C199.723 64.2444 199.796 63.9508 199.696 63.6883C199.603 63.4284 199.333 63.2126 198.886 63.0409C198.581 62.9239 198.249 62.8487 197.89 62.8155C197.537 62.7848 197.205 62.803 196.892 62.87L196.99 61.887C197.414 61.8106 197.863 61.7998 198.337 61.8547C198.811 61.9095 199.272 62.0228 199.719 62.1945ZM196.562 66.0961C196.88 66.2183 197.207 66.2654 197.543 66.2372C197.89 66.2058 198.201 66.0936 198.477 65.9006L198.883 65.3611L197.572 64.8578C196.84 64.5768 196.319 64.6423 196.009 65.0542C195.861 65.2514 195.835 65.4431 195.93 65.6294C196.026 65.8156 196.237 65.9712 196.562 66.0961ZM201.917 69.1722C201.477 69.0032 201.083 68.7887 200.737 68.5288C200.391 68.2689 200.15 68.0154 200.012 67.7683L201.122 67.1289C201.261 67.3618 201.468 67.5868 201.741 67.8039C202.026 68.0178 202.334 68.1884 202.666 68.3159C203.425 68.6073 203.933 68.5818 204.191 68.2395C204.313 68.0771 204.3 67.9263 204.151 67.787C204.009 67.6504 203.747 67.4711 203.364 67.2492C202.96 67.0195 202.644 66.8123 202.416 66.6277C202.195 66.4456 202.049 66.2214 201.979 65.9551C201.92 65.6857 202.016 65.3827 202.27 65.0462C202.601 64.6054 203.079 64.3363 203.702 64.2392C204.336 64.1388 205.02 64.2291 205.751 64.5101C206.124 64.6531 206.469 64.8339 206.784 65.0524C207.105 65.2651 207.338 65.4779 207.483 65.6907L206.374 66.3301C206.087 65.9212 205.656 65.6061 205.08 65.385C204.707 65.2419 204.386 65.182 204.115 65.2052C203.855 65.2251 203.667 65.3134 203.549 65.4701C203.418 65.6441 203.426 65.8078 203.573 65.9613C203.73 66.1116 204.002 66.3018 204.388 66.5321C204.778 66.7566 205.083 66.9599 205.304 67.142C205.526 67.324 205.667 67.5427 205.728 67.798C205.796 68.0559 205.706 68.3501 205.457 68.6808C205.13 69.1159 204.648 69.3794 204.011 69.4713C203.374 69.5633 202.676 69.4636 201.917 69.1722Z" fill="white"/>
<path d="M251.552 80.2971C252.169 80.5338 252.639 80.8263 252.962 81.1746C253.292 81.5255 253.457 81.9103 253.456 82.3288C253.456 82.7473 253.288 83.1799 252.952 83.6265C252.62 84.0674 252.208 84.4064 251.715 84.6434C251.227 84.8746 250.687 84.9888 250.095 84.9859C249.51 84.9856 248.909 84.8671 248.293 84.6304L246.687 84.0139L245.364 85.7716L244.043 85.2643L248.625 79.1733L251.552 80.2971ZM248.952 83.6498C249.528 83.871 250.043 83.9343 250.499 83.8399C250.954 83.7456 251.328 83.504 251.62 83.1154C251.912 82.7267 251.988 82.3707 251.847 82.0474C251.706 81.7241 251.347 81.4519 250.771 81.2308L249.226 80.6377L247.407 83.0567L248.952 83.6498ZM253.571 89.0004C253.022 88.7897 252.604 88.4983 252.316 88.1262C252.029 87.7541 251.895 87.34 251.914 86.8841C251.945 86.425 252.133 85.9663 252.478 85.508C252.823 85.0498 253.252 84.6876 253.767 84.4216C254.288 84.1582 254.845 84.0095 255.438 83.9756C256.032 83.9416 256.603 84.03 257.152 84.2407C257.707 84.454 258.129 84.7467 258.417 85.1189C258.705 85.491 258.835 85.9037 258.809 86.357C258.789 86.8129 258.607 87.27 258.262 87.7283C257.917 88.1866 257.482 88.5503 256.956 88.8195C256.442 89.0856 255.888 89.2355 255.295 89.2695C254.702 89.3034 254.127 89.2138 253.571 89.0004ZM254.272 88.0694C254.739 88.2489 255.226 88.2637 255.732 88.1139C256.237 87.9642 256.654 87.6717 256.981 87.2366C257.308 86.8016 257.42 86.3921 257.316 86.0082C257.211 85.6243 256.925 85.3426 256.458 85.1631C255.99 84.9836 255.504 84.9687 254.998 85.1185C254.499 85.2709 254.086 85.5646 253.759 85.9997C253.431 86.4348 253.316 86.843 253.414 87.2243C253.518 87.6082 253.804 87.8899 254.272 88.0694ZM261.224 85.8714L262.495 86.3592L259 91.0058L257.729 90.518L261.224 85.8714ZM262.441 85.3515C262.21 85.2631 262.063 85.128 261.999 84.9464C261.939 84.7589 261.979 84.5724 262.118 84.3867C262.258 84.2011 262.452 84.0773 262.699 84.0153C262.951 83.9475 263.192 83.9578 263.423 84.0463C263.653 84.1347 263.8 84.2698 263.865 84.4514C263.933 84.6273 263.9 84.8051 263.765 84.9849C263.621 85.1764 263.42 85.3089 263.164 85.3825C262.919 85.4529 262.678 85.4426 262.441 85.3515ZM267.282 88.1294C267.967 88.3922 268.387 88.774 268.543 89.275C268.699 89.7759 268.523 90.3628 268.017 91.0358L266.014 93.6984L264.744 93.2107L266.642 90.6872C266.947 90.2812 267.065 89.9337 266.994 89.6448C266.927 89.3501 266.687 89.1234 266.274 88.9648C265.806 88.7853 265.345 88.7653 264.891 88.9049C264.441 89.0387 264.046 89.3318 263.705 89.7843L261.938 92.1337L260.668 91.6459L264.163 86.9993L265.372 87.4637L264.921 88.0641C265.292 87.9301 265.679 87.8691 266.08 87.8812C266.482 87.8932 266.882 87.976 267.282 88.1294ZM271.079 95.3174C270.852 95.3646 270.61 95.3726 270.354 95.3416C270.104 95.3132 269.861 95.2534 269.624 95.1624C269.027 94.9335 268.667 94.6231 268.542 94.2314C268.418 93.8397 268.548 93.3886 268.932 92.8781L270.614 90.6418L269.719 90.2985L270.374 89.4283L271.268 89.7717L272.067 88.7101L273.337 89.1979L272.539 90.2594L273.992 90.8174L273.338 91.6876L271.884 91.1296L270.222 93.3398C270.052 93.566 269.985 93.7648 270.022 93.936C270.064 94.1015 270.206 94.231 270.45 94.3247C270.735 94.4339 271.02 94.4611 271.306 94.4064L271.079 95.3174ZM273.566 96.6757C273.126 96.5066 272.732 96.2921 272.386 96.0322C272.04 95.7723 271.799 95.5188 271.661 95.2717L272.771 94.6324C272.91 94.8653 273.117 95.0902 273.39 95.3073C273.675 95.5212 273.983 95.6919 274.315 95.8194C275.074 96.1107 275.582 96.0853 275.84 95.743C275.962 95.5806 275.949 95.4297 275.8 95.2905C275.658 95.1538 275.396 94.9746 275.013 94.7527C274.609 94.523 274.293 94.3158 274.065 94.1311C273.844 93.949 273.698 93.7249 273.628 93.4586C273.569 93.1891 273.665 92.8862 273.919 92.5497C274.25 92.1088 274.728 91.8398 275.351 91.7426C275.985 91.6423 276.669 91.7326 277.4 92.0135C277.773 92.1566 278.117 92.3374 278.433 92.5559C278.754 92.7685 278.987 92.9813 279.132 93.1942L278.023 93.8335C277.736 93.4246 277.305 93.1096 276.729 92.8885C276.356 92.7454 276.035 92.6854 275.764 92.7086C275.504 92.7286 275.316 92.8169 275.198 92.9735C275.067 93.1476 275.075 93.3113 275.221 93.4648C275.379 93.615 275.651 93.8053 276.037 94.0356C276.427 94.2601 276.732 94.4634 276.953 94.6454C277.175 94.8275 277.316 95.0462 277.377 95.3014C277.445 95.5593 277.355 95.8536 277.106 96.1842C276.779 96.6193 276.297 96.8828 275.66 96.9748C275.023 97.0667 274.325 96.967 273.566 96.6757Z" fill="white"/>
<path d="M317.861 112.378L317.147 113.326L311.811 111.278L316.392 105.187L321.587 107.181L320.873 108.129L317 106.642L315.809 108.226L319.245 109.545L318.544 110.476L315.109 109.157L313.845 110.837L317.861 112.378ZM321.855 115.134L321.674 112.989L319.06 114.061L317.657 113.522L321.545 111.976L321.244 108.911L322.657 109.453L322.843 111.487L325.32 110.475L326.692 111.002L322.951 112.493L323.289 115.684L321.855 115.134ZM330.769 112.5C331.298 112.703 331.695 112.982 331.96 113.338C332.232 113.697 332.351 114.101 332.318 114.552C332.284 115.003 332.091 115.463 331.737 115.933C331.384 116.403 330.951 116.775 330.439 117.049C329.931 117.318 329.393 117.47 328.825 117.506C328.263 117.545 327.718 117.463 327.189 117.26C326.457 116.979 326.035 116.547 325.922 115.966L324.227 118.22L322.956 117.732L327.721 111.397L328.931 111.861L328.473 112.471C328.849 112.331 329.231 112.264 329.618 112.271C330.013 112.281 330.397 112.357 330.769 112.5ZM327.747 116.274C328.215 116.453 328.698 116.467 329.197 116.315C329.703 116.165 330.119 115.872 330.446 115.437C330.774 115.002 330.885 114.593 330.781 114.209C330.684 113.828 330.401 113.547 329.933 113.368C329.628 113.251 329.308 113.206 328.973 113.234C328.641 113.257 328.322 113.351 328.014 113.517C327.705 113.682 327.442 113.91 327.224 114.2C327.006 114.49 326.885 114.773 326.862 115.048C326.838 115.323 326.902 115.568 327.055 115.784C327.212 115.994 327.442 116.157 327.747 116.274ZM333.589 119.716C333.04 119.505 332.621 119.214 332.334 118.842C332.046 118.47 331.912 118.056 331.932 117.6C331.963 117.141 332.15 116.682 332.495 116.224C332.84 115.766 333.269 115.403 333.784 115.137C334.305 114.874 334.863 114.725 335.456 114.691C336.049 114.657 336.62 114.746 337.169 114.956C337.725 115.17 338.146 115.462 338.434 115.835C338.722 116.207 338.852 116.619 338.826 117.073C338.806 117.529 338.624 117.986 338.279 118.444C337.934 118.902 337.499 119.266 336.974 119.535C336.459 119.801 335.905 119.951 335.312 119.985C334.719 120.019 334.144 119.929 333.589 119.716ZM334.289 118.785C334.757 118.965 335.243 118.979 335.749 118.83C336.255 118.68 336.671 118.387 336.998 117.952C337.326 117.517 337.437 117.108 337.333 116.724C337.229 116.34 336.943 116.058 336.475 115.879C336.008 115.699 335.521 115.684 335.015 115.834C334.516 115.987 334.103 116.28 333.776 116.715C333.449 117.151 333.334 117.559 333.431 117.94C333.536 118.324 333.821 118.606 334.289 118.785ZM341.941 117.73C342.673 117.383 343.5 117.387 344.422 117.741L343.643 118.776C343.548 118.717 343.456 118.671 343.368 118.637C342.873 118.447 342.393 118.423 341.928 118.566C341.467 118.703 341.062 119.004 340.712 119.468L339.017 121.722L337.747 121.234L341.242 116.587L342.451 117.051L341.941 117.73ZM345.617 123.93C345.389 123.977 345.147 123.985 344.891 123.954C344.642 123.925 344.399 123.866 344.161 123.775C343.565 123.546 343.205 123.235 343.08 122.844C342.956 122.452 343.085 122.001 343.469 121.49L345.151 119.254L344.257 118.911L344.911 118.041L345.806 118.384L346.604 117.322L347.875 117.81L347.076 118.872L348.53 119.43L347.876 120.3L346.422 119.742L344.759 121.952C344.589 122.178 344.523 122.377 344.56 122.548C344.601 122.714 344.744 122.843 344.988 122.937C345.273 123.046 345.558 123.073 345.844 123.019L345.617 123.93Z" fill="white"/>
<rect x="0.150832" y="0.525148" width="63.5152" height="23.5914" rx="8.61992" transform="matrix(0.93358 0.358368 -0.601118 0.79916 105.391 116.052)" fill="white" stroke="black" stroke-width="0.90736"/>
<path d="M214.623 208.48L205.4 217.953L213.095 220.906L219.585 210.384L228.707 196.636C228.707 196.636 233.774 199.611 235.716 197.018C237.658 194.425 234.294 196.005 235.629 192.779C236.964 189.553 233.184 189.504 233.184 189.504C233.184 189.504 249.149 168.999 248.407 168.247C247.666 167.496 231.486 188.853 231.486 188.853C231.486 188.853 228.643 186.827 226.311 189.202C223.978 191.578 223.27 188.902 221.315 191.49C219.36 194.078 225.629 195.454 225.629 195.454L214.623 208.48Z" fill="white" stroke="black" stroke-width="0.90736"/>
<path d="M111.577 127.559L109.137 126.622L109.707 125.865L115.592 128.124L115.023 128.881L112.583 127.945L108.571 133.279L107.565 132.893L111.577 127.559ZM117.151 130.573C117.897 130.859 118.348 131.234 118.506 131.698C118.67 132.165 118.518 132.709 118.052 133.33L115.957 136.114L115.032 135.759L115.49 135.15C115.166 135.302 114.808 135.378 114.416 135.377C114.035 135.372 113.637 135.291 113.224 135.132C112.621 134.901 112.23 134.59 112.052 134.2C111.88 133.813 111.947 133.416 112.253 133.01C112.558 132.604 112.975 132.345 113.504 132.234C114.037 132.118 114.68 132.204 115.432 132.492L116.978 133.085L117.102 132.92C117.372 132.56 117.458 132.238 117.358 131.953C117.258 131.668 116.971 131.434 116.496 131.252C116.178 131.13 115.831 131.057 115.456 131.033C115.086 131.002 114.739 131.023 114.415 131.093L114.48 130.31C114.902 130.225 115.343 130.208 115.803 130.257C116.268 130.301 116.718 130.406 117.151 130.573ZM113.871 134.551C114.244 134.694 114.618 134.748 114.994 134.713C115.374 134.672 115.723 134.544 116.042 134.33L116.526 133.686L115.021 133.108C114.195 132.791 113.602 132.87 113.245 133.346C113.07 133.578 113.038 133.801 113.147 134.015C113.257 134.229 113.498 134.408 113.871 134.551ZM126.253 134.123L122.785 138.735L121.86 138.38L122.383 137.684C122.008 137.846 121.607 137.932 121.182 137.94C120.767 137.945 120.37 137.875 119.991 137.73C119.272 137.454 118.833 137.068 118.673 136.573C118.517 136.072 118.687 135.491 119.185 134.83L121.181 132.176L122.157 132.551L120.233 135.109C119.897 135.555 119.767 135.943 119.843 136.271C119.924 136.594 120.198 136.845 120.665 137.024C121.18 137.222 121.687 137.245 122.186 137.092C122.685 136.94 123.118 136.62 123.484 136.133L125.278 133.748L126.253 134.123ZM128.464 135.97C128.834 135.768 129.238 135.661 129.674 135.649C130.111 135.637 130.567 135.723 131.041 135.905L130.432 136.714C130.382 136.687 130.31 136.656 130.215 136.619C129.687 136.417 129.167 136.393 128.657 136.548C128.158 136.701 127.721 137.026 127.346 137.525L125.618 139.823L124.642 139.448L128.111 134.836L129.046 135.195L128.464 135.97ZM134.196 137.116C134.941 137.402 135.393 137.777 135.55 138.241C135.714 138.708 135.563 139.252 135.096 139.872L133.002 142.657L132.077 142.302L132.535 141.693C132.211 141.845 131.852 141.92 131.46 141.919C131.079 141.915 130.682 141.834 130.269 141.675C129.665 141.443 129.275 141.133 129.096 140.743C128.925 140.355 128.992 139.959 129.297 139.553C129.603 139.147 130.02 138.888 130.549 138.777C131.082 138.66 131.725 138.746 132.477 139.035L134.022 139.628L134.146 139.463C134.417 139.103 134.502 138.781 134.402 138.496C134.302 138.211 134.015 137.977 133.541 137.795C133.222 137.673 132.875 137.6 132.501 137.575C132.13 137.545 131.783 137.565 131.46 137.635L131.524 136.853C131.946 136.768 132.387 136.751 132.848 136.8C133.313 136.844 133.762 136.949 134.196 137.116ZM130.915 141.093C131.288 141.237 131.662 141.291 132.038 141.255C132.418 141.214 132.768 141.087 133.086 140.873L133.57 140.229L132.066 139.651C131.239 139.334 130.647 139.413 130.289 139.889C130.115 140.121 130.082 140.344 130.192 140.558C130.302 140.772 130.543 140.95 130.915 141.093ZM143.46 140.728L140.462 144.713C139.856 145.52 139.175 146.024 138.419 146.228C137.659 146.437 136.815 146.363 135.886 146.007C135.378 145.812 134.94 145.565 134.57 145.266C134.197 144.973 133.951 144.662 133.832 144.332L134.784 143.868C134.895 144.15 135.094 144.413 135.381 144.658C135.671 144.911 136.013 145.114 136.406 145.264C137.036 145.506 137.596 145.557 138.086 145.416C138.583 145.278 139.028 144.948 139.421 144.426L139.696 144.06C139.286 144.21 138.867 144.28 138.436 144.272C138.017 144.26 137.611 144.179 137.218 144.028C136.702 143.831 136.305 143.558 136.024 143.212C135.755 142.861 135.628 142.473 135.644 142.045C135.664 141.612 135.838 141.178 136.165 140.743C136.492 140.307 136.901 139.967 137.392 139.722C137.886 139.471 138.41 139.331 138.963 139.305C139.523 139.28 140.06 139.367 140.575 139.565C140.982 139.721 141.31 139.929 141.56 140.189C141.816 140.452 141.962 140.751 141.998 141.086L142.535 140.373L143.46 140.728ZM137.879 143.34C138.232 143.476 138.595 143.533 138.968 143.512C139.349 143.494 139.702 143.401 140.028 143.235C140.366 143.065 140.643 142.835 140.862 142.545C141.197 142.099 141.295 141.673 141.155 141.267C141.019 140.856 140.679 140.547 140.137 140.338C139.588 140.128 139.036 140.095 138.481 140.241C137.931 140.381 137.487 140.674 137.151 141.121C136.933 141.411 136.815 141.702 136.796 141.994C136.788 142.283 136.876 142.544 137.057 142.778C137.246 143.015 137.52 143.203 137.879 143.34ZM148.439 145.645C148.391 145.709 148.321 145.79 148.229 145.889L143.858 144.211C143.614 144.641 143.574 145.048 143.739 145.433C143.915 145.814 144.267 146.106 144.795 146.309C145.439 146.557 146.097 146.57 146.77 146.349L146.903 147.096C146.475 147.246 146.031 147.314 145.569 147.302C145.114 147.291 144.662 147.2 144.215 147.029C143.646 146.81 143.215 146.518 142.923 146.151C142.635 145.779 142.505 145.367 142.531 144.913C142.565 144.462 142.752 144.011 143.092 143.558C143.428 143.112 143.846 142.753 144.347 142.482C144.855 142.213 145.386 142.058 145.941 142.017C146.507 141.973 147.048 142.049 147.563 142.247C148.078 142.445 148.459 142.722 148.706 143.078C148.964 143.432 149.07 143.831 149.023 144.277C148.983 144.725 148.789 145.181 148.439 145.645ZM147.033 142.952C146.565 142.772 146.081 142.743 145.579 142.865C145.084 142.989 144.661 143.237 144.31 143.611L147.766 144.938C148.004 144.528 148.056 144.141 147.92 143.775C147.796 143.406 147.5 143.131 147.033 142.952ZM148.142 141.46C147.972 141.395 147.867 141.291 147.826 141.148C147.785 141.005 147.819 140.861 147.928 140.716C148.037 140.571 148.187 140.472 148.376 140.417C148.565 140.363 148.745 140.368 148.914 140.433C149.084 140.498 149.189 140.602 149.23 140.745C149.271 140.888 149.237 141.032 149.128 141.177C149.019 141.322 148.869 141.421 148.68 141.476C148.491 141.53 148.311 141.525 148.142 141.46Z" fill="black"/>
<g clip-path="url(#clip1)">
<path d="M153.452 159.734L159.047 175.537L152.473 173.322L151.119 179.946L147.928 179.922L149.305 173.15L141.383 175.365L153.452 159.734Z" fill="white"/>
<path d="M147.673 180.367C147.426 180.315 147.281 180.131 147.319 179.92L148.578 173.833L141.498 175.803C141.266 175.863 141.031 175.813 140.9 175.675C140.762 175.538 140.758 175.335 140.889 175.162L152.958 159.531C153.081 159.366 153.31 159.263 153.534 159.27C153.769 159.263 153.962 159.373 154.017 159.546L159.612 175.35C159.697 175.519 159.614 175.729 159.411 175.86C159.217 175.998 158.95 176.033 158.751 175.947L152.911 173.995L151.689 179.964C151.669 180.085 151.591 180.202 151.471 180.291C151.34 180.368 151.187 180.41 151.036 180.41L147.819 180.379L147.673 180.367ZM149.56 172.705L149.72 172.746C149.863 172.838 149.926 172.988 149.887 173.146L148.606 179.431L150.632 179.464L151.903 173.304C151.924 173.153 152.041 173.009 152.213 172.923C152.386 172.837 152.591 172.822 152.754 172.883L158.102 174.683L153.198 160.869L142.649 174.539L149.19 172.713C149.315 172.68 149.444 172.677 149.56 172.705Z" fill="black"/>
</g>
<path d="M208.17 135.673C205.241 139.567 204.267 152.679 204.267 152.679C204.267 152.679 219.035 144.862 221.717 140.874C224.4 136.885 222.7 134.082 219.251 132.758C215.803 131.434 211.099 131.78 208.17 135.673Z" fill="white" stroke="black" stroke-width="0.90736"/>
<circle r="4.08312" transform="matrix(0.93358 0.358368 -0.601118 0.79916 214.238 139.218)" fill="#4D91BB" stroke="black" stroke-width="0.90736"/>
<defs>
<linearGradient id="paint0_linear" x1="137.919" y1="0" x2="137.919" y2="264.949" gradientUnits="userSpaceOnUse">
<stop stop-color="#EDEDED"/>
<stop offset="1" stop-color="#E0F3FF"/>
</linearGradient>
<clipPath id="clip0">
<rect width="256.783" height="174.91" fill="white" transform="matrix(0.93358 0.358368 -0.601118 0.79916 130.969 53.9879)"/>
</clipPath>
<clipPath id="clip1">
<rect width="23.5591" height="23.5591" fill="white" transform="matrix(1.0013 0.255834 -0.479911 0.837636 146.948 157.56)"/>
</clipPath>
</defs>
</svg>
