<svg width="59" height="65" viewBox="0 0 59 65" fill="none" xmlns="http://www.w3.org/2000/svg">
<g clip-path="url(#clip0)">
<path d="M29.3611 64.8153C45.4852 64.8153 58.5563 51.7665 58.5563 35.6699C58.5563 19.5734 45.4852 6.5246 29.3611 6.5246C13.2371 6.5246 0.166016 19.5734 0.166016 35.6699C0.166016 51.7665 13.2371 64.8153 29.3611 64.8153Z" fill="#C4C4C4"/>
<path d="M17.1394 30.8516L17.9628 36.9575L19.6095 42.1241L22.903 45.5294L26.5493 48.2301L31.1366 49.2869L35.6063 48.5824L39.0174 45.2945L41.6051 36.7227L43.1342 28.7379L43.2518 24.041L43.1342 20.1661L41.958 15.1169L39.8407 13.1207L35.6063 11.242L31.8424 10.3026L27.4903 9.48062L24.3145 10.3026L21.7267 13.7078L19.6095 17.9351L17.2571 20.7532L16.7866 24.7456L16.6689 28.3857L17.1394 30.8516Z" fill="#E9D79F"/>
<path d="M31.6789 30.4481L30.8888 31.486L30.4729 32.3163L30.5977 33.4372L31.3046 34.1015L31.8245 33.8731L32.4275 33.6033L33.0513 33.6448L33.9454 33.7486L34.5276 34.1845L35.0682 34.4543H35.692L36.087 34.3921L36.5653 34.3298C36.5653 34.3298 36.8772 34.143 36.9603 34.1015C37.0435 34.0599 37.1891 34.0807 37.1891 34.0807L37.2514 34.2883L37.5633 34.226L37.7505 33.8524L37.9376 33.3542L38.0624 32.7107L38.1248 32.0465L38 31.3615L37.7089 30.4274L37.3554 29.8877L37.1475 29.4103L37.1267 28.2063L37.2099 27.293L37.0435 26.5042L36.6692 25.6946L36.3989 24.8851L36.2534 24.4077L36.3158 24.0133L36.7531 23.0429L37.1354 22.1916L38.0764 21.2816L39.135 20.9881L40.7229 21.1348L42.5461 21.8687L43.1342 22.3971L43.1342 20.1661L41.9579 15.1169L39.8407 13.1207L35.6063 11.242L27.4903 9.48062L24.3145 10.3026L21.7267 13.7078L19.6095 17.9351L17.2571 20.7532L16.6689 28.3857L17.9628 36.9575L19.6095 42.1241L22.903 45.5294L26.5493 48.2301L28.8494 48.4151L31.1366 49.2869L32.7704 48.4834L34.1325 47.3033C34.2812 46.6823 34.8197 46.2023 34.9075 45.3986C34.8477 44.9768 35.1561 43.9014 34.7286 42.8922L34.9006 41.7719L31.3719 41.1848L28.9018 38.5427L30.078 38.4253L35.371 37.3098L35.3014 34.9635L34.0634 34.3147L32.9574 34.3679L31.2542 34.2018L30.4603 33.4899L30.3793 33.0843L30.3222 32.3111L30.4365 32.0205L30.9602 31.1011L31.6789 30.4481" fill="#F9E7B5"/>
<path d="M25.5582 21.941L23.7939 22.7043L22.647 23.6143L22.5 24.1134L23.1469 24.9647C23.1469 24.9647 24.3526 25.9628 24.4996 25.9628C24.6466 25.9628 26.5286 26.4031 26.5286 26.4031L27.9107 26.5205L29.3222 26.2563L30.5572 25.8747L31.41 25.2289L31.7334 24.4069L31.4688 23.673L30.8807 22.9685L29.5868 22.352L27.7636 21.9704L26.2934 21.8823L25.5582 21.941Z" fill="#DECEA8"/>
<path d="M28.9023 38.5427L30.0786 38.4253L32.6075 37.1924L33.9013 37.7208L35.3716 37.3098L37.5477 39.6583L36.8419 39.7757L35.4304 38.895L33.6073 39.0124L31.9606 38.4253L29.3728 38.895L28.9023 38.5427Z" fill="#DFBA8C"/>
<path d="M28.9014 38.5427L31.3715 41.1847L32.9006 41.7718L33.6651 41.537L34.9002 41.7718L36.1352 41.126L37.5467 39.6582L36.8409 39.7757L35.4295 38.895L33.6063 39.0124L31.9596 38.4253L29.3719 38.895L28.9014 38.5427Z" fill="#DFBA8C"/>
<path d="M29.5443 24.3611C30.075 24.5012 30.0821 24.4975 30.4895 24.6869L29.6073 25.0391L28.5487 25.4501L27.4313 25.6262L26.1962 25.3914L24.373 24.5107L26.255 23.9383L26.1893 24.1274L26.108 24.4814L26.4804 25.02L26.8963 25.2483L27.3745 25.3314L27.9047 25.2276L28.3518 24.937L28.5181 24.5322V24.1274L28.3929 23.9573L29.038 24.1793C29.038 24.1793 29.0276 24.1793 29.5443 24.3611V24.3611Z" fill="white"/>
<path d="M16.0957 29.3251L16.6691 28.3857L17.2572 20.7532L19.6097 17.9351L21.7269 13.7078L24.3146 10.3026L27.4905 9.48062L35.6065 11.242L39.8409 13.1207L41.9581 15.1169L43.1344 20.1661V28.7379L43.448 27.376V20.8166L42.1172 14.7139L41.036 13.1986L39.5597 11.9946L39.123 11.7455L35.6921 9.8566L34.2158 10.0019L29.2463 9.42068L26.0234 9.50372L23.3411 10.251L20.9499 13.9043L19.38 17.703L17.9141 19.239L17.3007 20.3184L16.8016 22.2904L16.0957 29.3251Z" fill="#E6BF85"/>
<path d="M36.5323 25.0831L36.8704 24.2612L37.3703 24.0263L38.4731 23.8355L39.8404 23.9529L40.7079 24.1878L41.3695 24.5694L41.7959 25.1565L41.9135 26.1106L41.9724 26.7564L41.7371 27.1967L40.9726 27.4903L40.061 27.6371L38.8259 27.6224L37.9438 27.3582L37.2821 26.9913L37.0432 26.5042L36.6689 25.6946L36.5176 25.1272" fill="#DDD1B1"/>
<path d="M16.3894 29.4278L15.3749 27.6077L14.8456 25.7437L13.9193 23.8796L13.0371 21.6339L13.2724 18.1699L14.0222 13.9427L16.1671 9.7528L18.4127 6.6184L21.2406 4.99931L23.7773 3.8784L25.0665 2.46689L28.9756 0.681732L28.8508 1.63658L31.8866 1.30446H34.5481L37.3344 1.88567L40.1207 3.62931L37.5423 3.29719L39.788 5.33143L36.7938 4.33507L39.7464 6.12022L42.3247 8.19598L43.3644 9.27538L41.6178 8.90174L44.3625 11.4342L40.287 9.98114L43.0733 13.3439L38.6652 10.4378L43.7803 14.7969L45.5269 17.4954L45.1526 20.3599L44.1961 23.0999L43.9466 25.7154L43.4476 27.376L43.4164 24.1378L43.4476 20.8166L43.0317 18.9484L42.5119 16.6236L42.1168 14.7139L41.0356 13.1986L39.5593 11.9946L39.1226 11.7455L40.3286 14.9837L40.8276 17.3916L39.9959 15.0875L38.2961 11.2992L36.3779 10.2608L35.6918 9.85659L34.2154 10.0019L33.7164 11.3096L29.2459 9.42068L26.023 9.50371L23.3407 10.251L22.509 11.6625L20.9495 13.9043L20.1801 15.731L19.3796 17.703L17.9137 19.239L17.3003 20.3184L16.8013 22.2904L16.3894 29.4278" fill="#282828"/>
<path d="M26.2554 23.9383L26.1084 24.4814L26.4808 25.02L26.8967 25.2483L27.3749 25.3314L27.9052 25.2276L28.3522 24.937L28.5185 24.5322V24.1274L28.3933 23.9573L27.7698 23.8722L27.6816 23.8796L27.8507 24.1144L27.8728 24.3272L27.7919 24.5547L27.6596 24.6795L27.417 24.7235L27.1964 24.6795L26.9538 24.5694L26.895 24.452L26.873 24.2245L26.9097 24.0704L27.0494 23.9309L27.0714 23.8722L26.7039 23.8942L26.4686 23.9016L26.2554 23.9383" fill="#819FAD"/>
<path d="M27.3542 23.868L27.0715 23.8722L26.9098 24.0704L26.873 24.2245L26.8951 24.452L26.9539 24.5694L27.1965 24.6795L27.4171 24.7235L27.6597 24.6795L27.792 24.5547L27.8729 24.3272L27.8508 24.1144L27.6817 23.8795L27.3542 23.868Z" fill="#11171A" stroke="black" stroke-width="0.145912"/>
<path d="M16.6693 28.3857L17.1398 30.8516L17.9632 36.9575L19.6099 42.1241L22.9034 45.5294L26.5497 48.2301L31.137 49.2869L35.6067 48.5824L39.0177 45.2945L41.6055 36.7227L39.3559 45.1478L39.1795 45.5588L38.0032 46.8798L35.7978 49.1842L33.3843 50.9566L30.9723 51.3718L28.1029 51.4963L25.8156 50.9566L22.7799 49.6697L20.9917 48.2997L19.7857 46.473L18.3301 43.4839L17.4984 39.3739L17.1241 35.8451L16.7915 34.2675L16.7499 32.8975L16.5835 31.5275L16.292 30.2309L16.39 29.4278L16.6693 28.3857Z" fill="#272727"/>
<path d="M36.8672 25.4559L37.1895 25.3729L37.5534 25.3521L37.4598 25.5909V25.8088L37.5326 26.0787L37.6677 26.2759L37.7821 26.4108L38.042 26.5042L38.3227 26.6184L38.6658 26.7221L38.9777 26.7325L39.2584 26.6287L39.5079 26.4315L39.6535 26.1513L39.7366 25.8918L39.7158 25.7362C39.7158 25.7362 39.8614 25.7258 40.1837 25.8711C40.506 26.0164 40.4956 26.0371 40.4956 26.0371L40.8387 26.2759L41.0674 26.5353L41.2961 26.7533L40.6099 26.8674L39.9758 26.9609L39.3104 26.9193L38.749 26.8363L38.1044 26.6495L37.5846 26.4004L37.2519 26.1202L36.9919 25.9022L36.8984 25.7258L36.8672 25.4559Z" fill="#FEFEFD"/>
<path d="M37.5535 25.3521L37.46 25.5909V25.8088L37.5327 26.0787L37.7822 26.4108L38.3229 26.6184L38.666 26.7221L38.9779 26.7325L39.2586 26.6287L39.5081 26.4315L39.6536 26.1513L39.7368 25.8918L39.716 25.7362L39.3573 25.6012L38.9934 25.5026L38.8947 25.4663L38.9727 25.6324L38.9675 25.8088L38.8947 25.9697L38.7855 26.0942L38.5932 26.1357L38.3801 26.1046L38.2501 25.9956L38.1721 25.8607L38.1357 25.6998L38.1617 25.596L38.1045 25.5234L38.0889 25.4352L38.1149 25.3625H37.9434H37.7511L37.5535 25.3521Z" fill="#8BB3B5"/>
<path d="M38.1616 25.596L38.1045 25.5234L38.0889 25.4352L38.1149 25.3625L38.2396 25.3677H38.3332L38.38 25.3729L38.3956 25.4507L38.3644 25.5545L38.1616 25.596Z" fill="white"/>
<path d="M38.3801 25.3729L38.3956 25.4507L38.3645 25.5545L38.1617 25.596L38.1357 25.6998L38.1721 25.8607L38.2501 25.9956L38.3801 26.1046L38.5932 26.1357L38.7855 26.0942L38.8947 25.9697L38.9675 25.8088L38.9727 25.6324L38.8947 25.4663L38.6738 25.4092L38.5074 25.3859L38.3801 25.3729Z" fill="black"/>
<path d="M24.373 24.5107L26.255 23.9383L27.071 23.8722L27.7694 23.8722L28.3929 23.9573L30.4895 24.6869" stroke="black" stroke-width="0.256438" stroke-linecap="round"/>
<path d="M21.4698 21.6677L21.0801 21.1055L21.4329 21.1642L21.2712 20.7679L21.58 20.7825L21.4771 20.2835L22.1681 20.3275L22.124 20.034H22.7121L22.5063 19.8432L23.0062 19.8579L22.7856 19.5643L23.4914 19.5349L23.9324 19.3735L24.2853 19.0799L24.9028 19.0653L25.5939 18.9772H25.8585L25.6674 19.1093L26.3878 19.0066L26.2408 19.2267L26.8583 19.1974L27.2994 19.2047L28.1228 19.2707L28.7476 19.3074L29.6151 19.4249L30.1591 19.5129L30.115 19.2928L30.3503 19.601L30.3062 19.2781L30.5635 19.5937L30.6149 19.4175L30.8722 19.7037L30.8869 19.3882L31.2104 20.2175L31.1222 19.5129L31.3059 19.8946L31.4603 20.5624L31.5191 20.8266L31.5338 20.5184V20.3055L31.453 19.8872L31.3941 19.6597L31.5632 19.9239L31.6956 20.4523L31.7029 20.8927L31.747 20.3789L31.7397 20.078L31.6 19.5643L31.7985 19.9606L31.8867 20.8413L31.9234 20.2688L31.9529 19.7037L31.997 20.0927L31.9896 20.6872L32.0117 20.8193L32.1587 20.1L32.1734 19.8505L32.2102 20.1294L32.1808 20.5697L32.1366 21.1202V21.333V21.4944L31.9382 21.5678L31.6882 21.5311L31.3868 21.4944L31.1515 21.2229L30.9898 21.2082H30.6664L30.1665 21.2522L29.8724 21.2376L29.6224 21.1789L28.9388 21.0468L28.3653 21.0321L27.6743 21.0834L27.1377 21.0761L26.3216 20.922L25.7923 20.6211L25.4027 20.5037L24.8514 20.4376L24.2559 20.4817L23.609 20.6211L22.7929 20.8559L22.0652 21.2523L21.4698 21.6677Z" fill="#424242"/>
<path d="M37.709 22.6907C37.7531 22.1623 37.7531 22.1476 37.7531 22.1476L38.3853 21.6192L39.2528 21.3256C39.2528 21.3256 39.2969 21.2082 40.1056 21.2963C40.9142 21.3843 40.8113 21.4871 40.8113 21.4871L41.5759 21.7366L42.2524 22.1658L42.8138 22.3838L43.1777 22.8093L43.2816 23.2452L43.2504 23.9821L43.1153 24.5011L42.9489 24.1274L42.689 23.6708L42.1692 23.349L41.7325 22.9961L41.036 22.9339L40.3602 22.7989L40.0795 22.6017L39.6324 22.6744L39.1022 22.6329L38.6759 22.5083L38.1561 22.5602L37.7299 22.7263L37.709 22.6907Z" fill="#424242"/>
<path d="M13.9201 23.8796L13.6 23.4424L13.0697 23.3283L12.5707 23.5566L12.2172 24.0029L11.9989 24.6153L11.9365 25.4456L11.9677 26.2032L12.0821 26.9401L12.4057 28.327L12.6263 29.4572L13.1262 31.4533L13.2291 31.7909L13.1262 31.9964V32.4074L13.5378 32.9211L14.1407 33.3028L14.9203 33.624L15.6273 33.7071L16.2719 33.5203L16.7085 33.2193L16.7501 32.8975L16.6565 32.2956L16.2303 32.1503L15.7936 32.2748L15.5025 32.389L15.0659 32.3163L14.4733 31.7974L14.0574 30.8425L13.9119 30.3755L13.6623 30.1264L13.1945 29.5659L13.1425 29.1404L13.1529 28.7564L12.9658 28.0195L12.8202 27.3345L12.6747 26.5042L12.5083 25.404L12.5499 24.6568L12.6539 24.1586L12.9497 23.8869L13.2658 23.8209L13.6555 23.9456L13.8246 24.1511L14.0377 24.5181L14.2215 24.6942L14.42 24.8483L13.9201 23.8796Z" fill="#F8E0A5"/>
<path d="M13.0595 28.4444L13.133 27.5637L13.0668 26.5876L12.9639 26.0812L12.8904 25.4501V24.8777L13.0668 24.3933L13.3168 24.2906L13.5994 24.335L13.7866 24.5063L14.0465 24.6619L14.4195 24.8483L14.0372 24.5181L13.6549 23.9456L13.2653 23.8209L12.9492 23.8869L12.6534 24.1586L12.5494 24.6568L12.5078 25.404L13.0595 28.4444Z" fill="#D1BF8A"/>
<path d="M13.7867 24.5063L13.5227 26.0226L13.1331 27.5637L13.0596 28.4444L13.1525 28.7564L13.1941 29.5659L13.6619 30.1264L14.5372 30.4993L15.7576 30.6167L16.2918 30.2309L16.3457 29.7361L15.6399 29.5893L14.7283 29.7507L14.1255 29.6186L13.8315 29.1343L13.8021 28.7233L14.0373 28.1655L14.7431 27.5784L15.2135 26.9913L14.846 25.7437L14.4196 24.8483L13.7867 24.5063Z" fill="#E2CB84"/>
<path d="M31.6367 33.9633L32.4277 33.6033L33.9456 33.7486L33.3864 33.9339L32.6512 34.0073L31.7102 33.9779" fill="#573A06"/>
<path d="M36.5654 34.3298C36.5654 34.3298 37.0125 33.9925 37.1892 34.0807C37.366 34.1689 37.2516 34.2883 37.2516 34.2883L36.5654 34.3298Z" fill="#573A06"/>
<path d="M13.7868 24.5063L13.5997 24.335L13.317 24.2906L13.0671 24.3933L12.8906 24.8777V25.4501L12.9641 26.0813L13.0671 26.5876L13.1332 27.5637L13.5228 26.0225L13.7868 24.5063Z" fill="#D8B854"/>
<path d="M15.2132 26.9913L14.7427 27.5784L14.037 28.1655L13.8018 28.7233L13.8312 29.1342L14.1252 29.6186L14.728 29.7507L15.6396 29.5892L16.3454 29.736L16.3895 29.4278L15.375 27.6077L15.2132 26.9913" fill="#E9D79F"/>
<path d="M13.6621 30.1264L13.9116 30.3755L14.0572 30.8425L14.473 31.7974L15.0656 32.3163L15.5023 32.389L15.7934 32.2748L16.23 32.1502L16.6563 32.2955L16.5835 31.5275L16.292 30.2309L15.7577 30.6167L14.5374 30.4993L13.6621 30.1264" fill="#EECC6B"/>
<path d="M45.2668 16.9957L45.2814 15.249L45.1785 14.7793L45.5167 15.2784L45.1932 14.339L45.4432 14.5445L44.8845 13.1061L45.252 13.2528L44.8992 12.2841L45.3991 12.4456L44.9727 11.8585L46.6341 11.8144L45.1638 11.6236L44.4728 11.0218L45.0609 11.1099L44.2228 10.7136L44.6492 10.6255L43.3701 10.1118L43.7523 9.99437L42.385 9.26047L42.9143 9.31918L42.6937 9.09902L41.6186 8.90176L44.3633 11.4342L40.2879 9.98116L43.0741 13.3439L38.666 10.4378L43.7811 14.7969L45.2668 16.9957Z" fill="#0A0A08"/>
<path d="M11.5529 47.1734L16.493 45.2946L17.0223 44.6488L17.4154 41.2214L17.4986 38.4398L18.3303 43.4839L19.7858 46.473L20.9918 48.2997L22.78 49.6697L25.8158 50.9567L28.103 51.4964L30.9725 51.3718L33.3845 50.9567L32.5486 52.017L31.6076 53.25L30.6372 54.4536L29.7257 55.2462L28.226 56.4497L27.1673 56.9488L25.7853 57.4185L24.5502 57.624L23.2858 57.5946L21.8449 57.4185L20.2864 57.0662L18.6691 56.4497L17.14 55.6571L15.7285 54.982L14.5228 53.9839L13.523 53.1032L12.4056 51.7822L11.6411 50.696L11.1412 49.5805L10.9941 48.3769L11.1706 47.5843L11.3176 47.2321L11.5529 47.1734Z" fill="#F5DBA5"/>
<path d="M40.0689 45.6541L39.0838 45.6909L35.7976 49.1841L33.384 50.9566L30.6369 54.4537L28.2255 56.4496L27.167 56.9487L25.7851 57.4185L24.5499 57.6239L23.2855 57.5946L21.8446 57.4185L20.286 57.0663L18.6687 56.4496L15.7281 54.982L13.5227 53.1033L11.6408 50.696L11.1409 49.5806L10.9938 48.3768L11.3173 47.2321L11.1979 46.8259L11.1147 46.5043L11.1875 46.2861L11.4058 46.1097L11.9465 46.0164L12.5391 46.037L12.934 46.1409L13.9425 46.2446L14.7579 45.9403L13.9637 45.911L12.8757 45.7937L11.9348 45.7642L11.0231 46.0579L9.58228 46.9384L8.90596 47.2614L8.05825 47.3447L6.68578 47.8429L3.6084 48.5903L3.60983 49.4017C6.10139 54.0583 9.81314 57.9519 14.3487 60.6666C18.8842 63.3814 24.0732 64.8153 29.3615 64.8153C34.5612 64.8153 39.6664 63.429 44.1497 60.7997C48.6329 58.1704 52.3314 54.3936 54.8629 49.8595L54.8085 49.786L54.3085 49.463L53.2205 49.3457L51.6032 48.641L49.6625 48.1422L47.1043 47.7605L46.4279 47.1441L45.4867 47.056L45.0457 46.8799L43.4873 46.7035L42.9285 46.2928L41.8405 46.4101L41.3406 45.9403L40.8775 45.7642H40.1643L40.0689 45.6541Z" fill="#6E44C5" fill-opacity="0.566929"/>
<path opacity="0.395" d="M8.05811 47.3448L7.80859 48.1336L7.97494 49.4206L8.59873 51.0812L9.26411 52.5757L10.0127 53.4891L10.886 55.1082L11.8009 56.146L13.7138 57.433L16.0426 58.6369L19.7854 59.9239L22.239 60.256L24.5678 60.2145L26.6055 59.8824L29.5997 58.8445L32.386 56.6027L34.4653 54.5685L35.4634 53.0324L36.4614 51.5378L36.8773 49.2545L37.0852 47.7185" stroke="#010101" stroke-width="0.697622"/>
<path d="M11.3168 47.232L11.1143 46.5041L11.187 46.2862L11.4054 46.1097L11.946 46.0163L12.5386 46.0371L12.9337 46.1409L13.9421 46.2447L11.552 47.1733L11.3168 47.232Z" fill="#200E2C"/>
<path d="M28.9023 38.5427L29.7041 38.8238L31.9605 38.4253L33.6073 39.0124L35.4304 38.895L36.8419 39.7757L37.5476 39.6582" stroke="black" stroke-width="0.068935"/>
<path d="M36.8672 25.4559L37.1895 25.3729L37.5534 25.3521L38.019 25.3543L38.2543 25.3488L38.5373 25.3672L38.8503 25.429L39.1882 25.5224L39.6223 25.6366L39.9913 25.7326L40.5943 25.9713L41.1376 26.3813L41.3377 26.5888L41.2961 26.7535L40.8387 26.276L40.4956 26.0373L39.7158 25.7363L38.8945 25.4665L38.6736 25.4094L38.3799 25.3731L38.1148 25.3627L37.5534 25.3523L37.1895 25.3731L36.8672 25.4559Z" fill="black" stroke="black" stroke-width="0.145912"/>
</g>
<defs>
<clipPath id="clip0">
<rect width="58.3903" height="64.1336" fill="white" transform="translate(0.166016 0.681732)"/>
</clipPath>
</defs>
</svg>
