<svg width="421" height="315" viewBox="0 0 421 315" fill="none" xmlns="http://www.w3.org/2000/svg">
<rect x="0.101597" y="0.376354" width="270.784" height="270.784" transform="matrix(0.929371 0.369147 -0.617352 0.786687 168.131 0.330283)" fill="#FFF9F1" stroke="black" stroke-width="0.651226"/>
<path d="M173.131 51.791C173.579 51.2201 174.051 50.821 174.546 50.5936C175.046 50.3677 175.578 50.367 176.143 50.5916C176.708 50.8161 176.985 51.1381 176.973 51.5575C176.965 51.9785 176.737 52.4744 176.289 53.0454C175.838 53.6196 175.362 54.0213 174.86 54.2504C174.362 54.4811 173.83 54.4842 173.265 54.2597C172.699 54.0351 172.422 53.7107 172.433 53.2864C172.448 52.8637 172.68 52.3653 173.131 51.791ZM175.482 52.7248C175.673 52.4806 175.814 52.2683 175.905 52.0878C176.002 51.9055 176.035 51.7391 176.005 51.5886C175.979 51.4397 175.856 51.3218 175.638 51.2351C175.42 51.1484 175.213 51.1354 175.017 51.1961C174.825 51.2583 174.643 51.3658 174.472 51.5187C174.308 51.6697 174.129 51.8674 173.938 52.1116C173.741 52.3624 173.593 52.5806 173.493 52.7661C173.396 52.9483 173.363 53.1147 173.393 53.2652C173.426 53.4124 173.551 53.5294 173.77 53.6161C173.988 53.7029 174.194 53.7175 174.387 53.6601C174.583 53.5994 174.765 53.4919 174.932 53.3375C175.102 53.1799 175.285 52.9756 175.482 52.7248ZM176.911 53.2927C177.359 52.7218 177.831 52.3226 178.327 52.0952C178.826 51.8694 179.358 51.8687 179.924 52.0933C180.489 52.3178 180.766 52.6398 180.754 53.0592C180.745 53.4802 180.517 53.9761 180.069 54.547C179.619 55.1212 179.142 55.5229 178.64 55.7521C178.142 55.9828 177.611 55.9859 177.045 55.7613C176.48 55.5368 176.203 55.2124 176.213 54.7881C176.228 54.3654 176.461 53.8669 176.911 53.2927ZM179.262 54.2265C179.454 53.9823 179.595 53.7699 179.686 53.5894C179.782 53.4072 179.816 53.2408 179.786 53.0903C179.759 52.9413 179.637 52.8235 179.419 52.7368C179.2 52.6501 178.993 52.637 178.797 52.6977C178.605 52.76 178.424 52.8675 178.253 53.0203C178.088 53.1714 177.91 53.369 177.718 53.6133C177.522 53.8641 177.373 54.0822 177.274 54.2678C177.177 54.45 177.143 54.6164 177.174 54.7669C177.206 54.9141 177.332 55.0311 177.55 55.1178C177.769 55.2045 177.974 55.2192 178.168 55.1618C178.364 55.1011 178.545 54.9936 178.712 54.8392C178.882 54.6815 179.065 54.4773 179.262 54.2265ZM179.668 56.8616C179.52 56.8027 179.427 56.716 179.389 56.6014C179.358 56.485 179.387 56.3691 179.478 56.2536C179.569 56.1381 179.69 56.0609 179.844 56.0222C180.003 55.9817 180.157 55.9909 180.305 56.0497C180.449 56.107 180.537 56.1939 180.569 56.3102C180.603 56.4233 180.574 56.5376 180.484 56.6531C180.393 56.7686 180.27 56.8474 180.114 56.8894C179.961 56.9281 179.812 56.9189 179.668 56.8616ZM181.276 54.8122C181.128 54.7533 181.035 54.6666 180.997 54.552C180.966 54.4356 180.995 54.3197 181.086 54.2042C181.177 54.0887 181.299 54.0116 181.452 53.9728C181.611 53.9323 181.765 53.9415 181.913 54.0004C182.058 54.0577 182.146 54.1445 182.177 54.2609C182.211 54.3739 182.183 54.4882 182.092 54.6037C182.001 54.7192 181.878 54.798 181.722 54.84C181.569 54.8788 181.421 54.8695 181.276 54.8122ZM182.228 55.4046C182.676 54.8336 183.148 54.4345 183.644 54.2071C184.143 53.9812 184.675 53.9806 185.241 54.2051C185.806 54.4297 186.083 54.7516 186.07 55.1711C186.062 55.592 185.834 56.088 185.386 56.6589C184.936 57.2331 184.459 57.6348 183.957 57.8639C183.459 58.0946 182.927 58.0977 182.362 57.8732C181.797 57.6486 181.52 57.3242 181.53 56.9C181.545 56.4772 181.778 55.9788 182.228 55.4046ZM184.579 56.3383C184.771 56.0941 184.912 55.8818 185.002 55.7013C185.099 55.519 185.133 55.3527 185.103 55.2022C185.076 55.0532 184.954 54.9354 184.736 54.8486C184.517 54.7619 184.31 54.7489 184.114 54.8096C183.922 54.8718 183.741 54.9794 183.57 55.1322C183.405 55.2833 183.227 55.4809 183.035 55.7251C182.838 55.9759 182.69 56.1941 182.591 56.3796C182.494 56.5619 182.46 56.7283 182.49 56.8788C182.523 57.026 182.649 57.1429 182.867 57.2297C183.085 57.3164 183.291 57.331 183.485 57.2736C183.681 57.213 183.862 57.1054 184.029 56.9511C184.199 56.7934 184.382 56.5891 184.579 56.3383ZM186.009 56.9062C186.457 56.3353 186.929 55.9362 187.424 55.7088C187.924 55.4829 188.456 55.4822 189.021 55.7068C189.587 55.9313 189.863 56.2533 189.851 56.6727C189.843 57.0937 189.615 57.5896 189.167 58.1606C188.716 58.7348 188.24 59.1365 187.738 59.3656C187.24 59.5963 186.708 59.5994 186.143 59.3748C185.577 59.1503 185.3 58.8259 185.311 58.4016C185.326 57.9789 185.558 57.4804 186.009 56.9062ZM188.36 57.84C188.551 57.5958 188.692 57.3834 188.783 57.203C188.88 57.0207 188.913 56.8543 188.883 56.7038C188.857 56.5549 188.735 56.437 188.516 56.3503C188.298 56.2636 188.091 56.2506 187.895 56.3113C187.703 56.3735 187.521 56.481 187.35 56.6339C187.186 56.7849 187.008 56.9826 186.816 57.2268C186.619 57.4776 186.471 57.6958 186.371 57.8813C186.274 58.0635 186.241 58.2299 186.271 58.3804C186.304 58.5276 186.429 58.6446 186.648 58.7313C186.866 58.818 187.072 58.8327 187.265 58.7753C187.461 58.7146 187.643 58.6071 187.81 58.4527C187.98 58.2951 188.163 58.0908 188.36 57.84Z" fill="black"/>
<path d="M201.267 62.9662C201.715 62.3953 202.186 61.9961 202.682 61.7687C203.181 61.5429 203.714 61.5422 204.279 61.7668C204.844 61.9913 205.121 62.3133 205.109 62.7327C205.101 63.1537 204.872 63.6496 204.424 64.2205C203.974 64.7947 203.498 65.1964 202.996 65.4256C202.497 65.6563 201.966 65.6594 201.4 65.4348C200.835 65.2103 200.558 64.8859 200.569 64.4616C200.583 64.0389 200.816 63.5404 201.267 62.9662ZM203.617 63.9C203.809 63.6558 203.95 63.4434 204.041 63.2629C204.138 63.0807 204.171 62.9143 204.141 62.7638C204.115 62.6148 203.992 62.497 203.774 62.4103C203.556 62.3236 203.348 62.3106 203.153 62.3712C202.96 62.4335 202.779 62.541 202.608 62.6938C202.443 62.8449 202.265 63.0426 202.074 63.2868C201.877 63.5376 201.729 63.7557 201.629 63.9413C201.532 64.1235 201.499 64.2899 201.529 64.4404C201.562 64.5876 201.687 64.7046 201.905 64.7913C202.124 64.878 202.33 64.8927 202.523 64.8353C202.719 64.7746 202.9 64.6671 203.068 64.5127C203.237 64.355 203.421 64.1508 203.617 63.9ZM205.826 63.3097L206.327 62.6711L207.736 63.2309L204.904 66.8395L204.062 66.5051L206.393 63.535L205.826 63.3097ZM206.142 67.3766C205.994 67.3178 205.901 67.2311 205.863 67.1164C205.832 67.0001 205.861 66.8841 205.952 66.7686C206.042 66.6531 206.164 66.576 206.317 66.5373C206.477 66.4968 206.631 66.506 206.779 66.5648C206.923 66.6221 207.011 66.7089 207.043 66.8253C207.077 66.9384 207.048 67.0527 206.958 67.1682C206.867 67.2837 206.744 67.3624 206.588 67.4045C206.435 67.4432 206.286 67.4339 206.142 67.3766ZM207.75 65.3273C207.602 65.2684 207.509 65.1817 207.471 65.0671C207.44 64.9507 207.469 64.8348 207.56 64.7193C207.651 64.6038 207.773 64.5266 207.926 64.4879C208.085 64.4474 208.239 64.4566 208.387 64.5154C208.532 64.5727 208.619 64.6596 208.651 64.7759C208.685 64.889 208.656 65.0033 208.566 65.1188C208.475 65.2343 208.352 65.3131 208.196 65.3551C208.043 65.3938 207.894 65.3846 207.75 65.3273ZM208.702 65.9196C209.15 65.3487 209.622 64.9496 210.117 64.7222C210.617 64.4963 211.149 64.4957 211.715 64.7202C212.28 64.9447 212.556 65.2667 212.544 65.6861C212.536 66.1071 212.308 66.603 211.86 67.174C211.409 67.7482 210.933 68.1499 210.431 68.379C209.933 68.6097 209.401 68.6128 208.836 68.3883C208.271 68.1637 207.993 67.8393 208.004 67.415C208.019 66.9923 208.252 66.4939 208.702 65.9196ZM211.053 66.8534C211.245 66.6092 211.386 66.3969 211.476 66.2164C211.573 66.0341 211.607 65.8677 211.576 65.7172C211.55 65.5683 211.428 65.4504 211.21 65.3637C210.991 65.277 210.784 65.264 210.588 65.3247C210.396 65.3869 210.215 65.4945 210.043 65.6473C209.879 65.7983 209.701 65.996 209.509 66.2402C209.312 66.491 209.164 66.7092 209.065 66.8947C208.968 67.077 208.934 67.2433 208.964 67.3938C208.997 67.5411 209.123 67.658 209.341 67.7447C209.559 67.8315 209.765 67.8461 209.959 67.7887C210.154 67.728 210.336 67.6205 210.503 67.4661C210.673 67.3085 210.856 67.1042 211.053 66.8534ZM212.483 67.4213C212.931 66.8504 213.403 66.4512 213.898 66.2238C214.397 65.998 214.93 65.9973 215.495 66.2219C216.06 66.4464 216.337 66.7684 216.325 67.1878C216.317 67.6088 216.089 68.1047 215.641 68.6756C215.19 69.2498 214.714 69.6515 214.212 69.8807C213.714 70.1114 213.182 70.1145 212.617 69.8899C212.051 69.6654 211.774 69.341 211.785 68.9167C211.8 68.494 212.032 67.9955 212.483 67.4213ZM214.834 68.3551C215.025 68.1109 215.166 67.8985 215.257 67.718C215.354 67.5358 215.387 67.3694 215.357 67.2189C215.331 67.0699 215.208 66.9521 214.99 66.8654C214.772 66.7787 214.565 66.7657 214.369 66.8263C214.177 66.8886 213.995 66.9961 213.824 67.1489C213.66 67.3 213.481 67.4976 213.29 67.7419C213.093 67.9927 212.945 68.2108 212.845 68.3964C212.748 68.5786 212.715 68.745 212.745 68.8955C212.778 69.0427 212.903 69.1597 213.122 69.2464C213.34 69.3331 213.546 69.3478 213.739 69.2904C213.935 69.2297 214.117 69.1222 214.284 68.9678C214.454 68.8101 214.637 68.6059 214.834 68.3551Z" fill="black"/>
<path d="M227.15 73.2477C227.598 72.6768 228.07 72.2776 228.566 72.0502C229.065 71.8244 229.597 71.8237 230.163 72.0483C230.728 72.2728 231.005 72.5948 230.993 73.0142C230.984 73.4352 230.756 73.9311 230.308 74.502C229.858 75.0763 229.381 75.478 228.879 75.7071C228.381 75.9378 227.849 75.9409 227.284 75.7163C226.719 75.4918 226.442 75.1674 226.452 74.7431C226.467 74.3204 226.7 73.8219 227.15 73.2477ZM229.501 74.1815C229.693 73.9373 229.834 73.7249 229.924 73.5445C230.021 73.3622 230.055 73.1958 230.025 73.0453C229.998 72.8964 229.876 72.7785 229.658 72.6918C229.439 72.6051 229.232 72.5921 229.036 72.6528C228.844 72.715 228.663 72.8225 228.492 72.9754C228.327 73.1264 228.149 73.3241 227.957 73.5683C227.761 73.8191 227.612 74.0373 227.513 74.2228C227.416 74.405 227.382 74.5714 227.413 74.7219C227.445 74.8691 227.571 74.9861 227.789 75.0728C228.008 75.1595 228.213 75.1742 228.407 75.1168C228.603 75.0561 228.784 74.9486 228.951 74.7942C229.121 74.6365 229.304 74.4323 229.501 74.1815ZM230.349 75.9208C230.931 75.8055 231.401 75.7045 231.761 75.6179C232.123 75.5279 232.453 75.4167 232.751 75.2841C233.05 75.1515 233.271 74.9929 233.416 74.8081C233.548 74.6397 233.605 74.4892 233.587 74.3563C233.568 74.2234 233.462 74.1183 233.267 74.0408C233.072 73.9634 232.878 73.9599 232.684 74.0303C232.493 74.0974 232.321 74.2259 232.167 74.4157L231.372 74.0998C231.698 73.71 232.072 73.4647 232.494 73.3638C232.92 73.2645 233.335 73.2954 233.741 73.4564C234.185 73.633 234.447 73.8691 234.527 74.1649C234.609 74.4573 234.522 74.7669 234.266 75.0936C234.064 75.3511 233.789 75.5644 233.442 75.7337C233.094 75.9029 232.746 76.0332 232.399 76.1245C232.053 76.2125 231.615 76.3112 231.085 76.4207L232.81 77.1059L232.359 77.6801L229.47 76.5327L229.874 76.0178L230.349 75.9208ZM233.265 78.1504C233.117 78.0915 233.024 78.0048 232.986 77.8902C232.955 77.7738 232.984 77.6579 233.075 77.5424C233.165 77.4269 233.287 77.3498 233.44 77.311C233.6 77.2705 233.754 77.2797 233.902 77.3386C234.046 77.3959 234.134 77.4827 234.166 77.5991C234.2 77.7121 234.171 77.8264 234.081 77.9419C233.99 78.0574 233.867 78.1362 233.711 78.1782C233.558 78.217 233.409 78.2077 233.265 78.1504ZM234.873 76.101C234.725 76.0422 234.632 75.9555 234.594 75.8408C234.563 75.7245 234.592 75.6085 234.683 75.493C234.774 75.3775 234.896 75.3004 235.049 75.2617C235.208 75.2212 235.362 75.2304 235.51 75.2892C235.655 75.3465 235.742 75.4333 235.774 75.5497C235.808 75.6628 235.78 75.777 235.689 75.8926C235.598 76.0081 235.475 76.0868 235.319 76.1289C235.166 76.1676 235.018 76.1583 234.873 76.101ZM235.825 76.6934C236.273 76.1225 236.745 75.7233 237.241 75.4959C237.74 75.2701 238.272 75.2694 238.838 75.494C239.403 75.7185 239.679 76.0405 239.667 76.4599C239.659 76.8809 239.431 77.3768 238.983 77.9477C238.532 78.5219 238.056 78.9236 237.554 79.1528C237.056 79.3835 236.524 79.3866 235.959 79.162C235.394 78.9375 235.116 78.6131 235.127 78.1888C235.142 77.7661 235.375 77.2676 235.825 76.6934ZM238.176 77.6272C238.368 77.383 238.509 77.1706 238.599 76.9901C238.696 76.8079 238.73 76.6415 238.699 76.491C238.673 76.342 238.551 76.2242 238.333 76.1375C238.114 76.0508 237.907 76.0377 237.711 76.0984C237.519 76.1607 237.338 76.2682 237.167 76.421C237.002 76.5721 236.824 76.7697 236.632 77.0139C236.435 77.2648 236.287 77.4829 236.188 77.6685C236.091 77.8507 236.057 78.0171 236.087 78.1676C236.12 78.3148 236.246 78.4318 236.464 78.5185C236.682 78.6052 236.888 78.6199 237.082 78.5625C237.278 78.5018 237.459 78.3943 237.626 78.2399C237.796 78.0822 237.979 77.878 238.176 77.6272ZM239.606 78.1951C240.054 77.6241 240.526 77.225 241.021 76.9976C241.521 76.7717 242.053 76.7711 242.618 76.9956C243.184 77.2202 243.46 77.5421 243.448 77.9616C243.44 78.3825 243.212 78.8785 242.764 79.4494C242.313 80.0236 241.837 80.4253 241.335 80.6544C240.837 80.8851 240.305 80.8882 239.74 80.6637C239.174 80.4391 238.897 80.1147 238.908 79.6905C238.923 79.2677 239.155 78.7693 239.606 78.1951ZM241.957 79.1288C242.148 78.8846 242.289 78.6723 242.38 78.4918C242.477 78.3095 242.51 78.1432 242.48 77.9927C242.454 77.8437 242.332 77.7259 242.113 77.6391C241.895 77.5524 241.688 77.5394 241.492 77.6001C241.3 77.6623 241.118 77.7699 240.947 77.9227C240.783 78.0738 240.604 78.2714 240.413 78.5156C240.216 78.7664 240.068 78.9846 239.968 79.1701C239.871 79.3524 239.838 79.5188 239.868 79.6693C239.901 79.8165 240.026 79.9334 240.245 80.0202C240.463 80.1069 240.669 80.1215 240.862 80.0641C241.058 80.0035 241.24 79.8959 241.407 79.7416C241.577 79.5839 241.76 79.3796 241.957 79.1288Z" fill="black"/>
<path d="M253.899 83.8727C254.347 83.3018 254.819 82.9027 255.315 82.6753C255.814 82.4494 256.346 82.4488 256.912 82.6733C257.477 82.8978 257.754 83.2198 257.742 83.6392C257.733 84.0602 257.505 84.5561 257.057 85.1271C256.607 85.7013 256.13 86.103 255.628 86.3321C255.13 86.5628 254.599 86.5659 254.033 86.3414C253.468 86.1168 253.191 85.7924 253.201 85.3681C253.216 84.9454 253.449 84.447 253.899 83.8727ZM256.25 84.8065C256.442 84.5623 256.583 84.35 256.673 84.1695C256.77 83.9872 256.804 83.8208 256.774 83.6703C256.747 83.5214 256.625 83.4035 256.407 83.3168C256.188 83.2301 255.981 83.2171 255.785 83.2778C255.593 83.34 255.412 83.4476 255.241 83.6004C255.076 83.7514 254.898 83.9491 254.706 84.1933C254.51 84.4441 254.361 84.6623 254.262 84.8478C254.165 85.0301 254.131 85.1964 254.162 85.3469C254.194 85.4941 254.32 85.6111 254.538 85.6978C254.757 85.7846 254.962 85.7992 255.156 85.7418C255.352 85.6811 255.533 85.5736 255.7 85.4192C255.87 85.2616 256.053 85.0573 256.25 84.8065ZM258.325 84.5722C258.603 84.2499 258.939 84.05 259.332 83.9724C259.732 83.8931 260.141 83.9363 260.558 84.102C260.842 84.2151 261.052 84.3548 261.188 84.5211C261.326 84.6841 261.388 84.8584 261.376 85.0438C261.37 85.2275 261.296 85.4102 261.153 85.5917C260.99 85.7996 260.787 85.9506 260.544 86.0447C260.308 86.137 260.083 86.1731 259.869 86.1529L259.853 86.1727C260.033 86.3219 260.125 86.4972 260.131 86.6986C260.141 86.9015 260.052 87.1218 259.866 87.3594C259.71 87.5574 259.517 87.7122 259.286 87.824C259.059 87.9373 258.806 87.9967 258.525 88.0022C258.251 88.0059 257.968 87.9497 257.676 87.8335C257.235 87.6586 256.95 87.422 256.821 87.124C256.692 86.8259 256.763 86.4906 257.035 86.1181L257.83 86.434C257.711 86.5988 257.673 86.7548 257.716 86.9018C257.766 87.047 257.898 87.1622 258.112 87.2474C258.311 87.3264 258.5 87.3406 258.677 87.29C258.862 87.2376 259.012 87.1372 259.129 86.9887C259.284 86.7907 259.321 86.6194 259.24 86.4747C259.16 86.3301 258.963 86.1958 258.651 86.0719L258.482 86.0046L258.929 85.4353L259.098 85.5027C259.652 85.7226 260.052 85.6757 260.298 85.3622C260.409 85.2203 260.445 85.0896 260.406 84.9702C260.37 84.8523 260.259 84.7561 260.072 84.6818C259.889 84.609 259.713 84.5954 259.544 84.641C259.382 84.6847 259.243 84.7679 259.126 84.8904L258.325 84.5722ZM260.157 88.8321C260.009 88.7733 259.916 88.6865 259.878 88.5719C259.846 88.4555 259.876 88.3396 259.967 88.2241C260.057 88.1086 260.179 88.0315 260.332 87.9927C260.492 87.9523 260.646 87.9614 260.794 88.0203C260.938 88.0776 261.026 88.1644 261.057 88.2808C261.091 88.3938 261.063 88.5081 260.972 88.6236C260.882 88.7391 260.759 88.8179 260.603 88.8599C260.45 88.8987 260.301 88.8894 260.157 88.8321ZM261.765 86.7827C261.617 86.7239 261.524 86.6372 261.486 86.5226C261.455 86.4062 261.484 86.2902 261.575 86.1747C261.665 86.0592 261.787 85.9821 261.941 85.9434C262.1 85.9029 262.254 85.9121 262.402 85.9709C262.546 86.0282 262.634 86.115 262.666 86.2314C262.7 86.3445 262.671 86.4588 262.581 86.5743C262.49 86.6898 262.367 86.7685 262.211 86.8106C262.058 86.8493 261.909 86.84 261.765 86.7827ZM262.717 87.3751C263.165 86.8042 263.637 86.405 264.132 86.1776C264.632 85.9518 265.164 85.9511 265.729 86.1757C266.295 86.4002 266.571 86.7222 266.559 87.1416C266.551 87.5626 266.323 88.0585 265.875 88.6294C265.424 89.2037 264.948 89.6053 264.446 89.8345C263.948 90.0652 263.416 90.0683 262.851 89.8437C262.286 89.6192 262.008 89.2948 262.019 88.8705C262.034 88.4478 262.266 87.9493 262.717 87.3751ZM265.068 88.3089C265.26 88.0647 265.401 87.8523 265.491 87.6718C265.588 87.4896 265.621 87.3232 265.591 87.1727C265.565 87.0237 265.443 86.9059 265.224 86.8192C265.006 86.7325 264.799 86.7195 264.603 86.7802C264.411 86.8424 264.229 86.9499 264.058 87.1027C263.894 87.2538 263.716 87.4515 263.524 87.6957C263.327 87.9465 263.179 88.1646 263.079 88.3502C262.982 88.5324 262.949 88.6988 262.979 88.8493C263.012 88.9965 263.138 89.1135 263.356 89.2002C263.574 89.2869 263.78 89.3016 263.973 89.2442C264.169 89.1835 264.351 89.076 264.518 88.9216C264.688 88.7639 264.871 88.5597 265.068 88.3089ZM266.498 88.8768C266.946 88.3059 267.417 87.9067 267.913 87.6793C268.412 87.4535 268.945 87.4528 269.51 87.6773C270.075 87.9019 270.352 88.2239 270.34 88.6433C270.332 89.0642 270.104 89.5602 269.656 90.1311C269.205 90.7053 268.729 91.107 268.227 91.3362C267.728 91.5669 267.197 91.5699 266.631 91.3454C266.066 91.1209 265.789 90.7965 265.8 90.3722C265.814 89.9495 266.047 89.451 266.498 88.8768ZM268.849 89.8106C269.04 89.5663 269.181 89.354 269.272 89.1735C269.369 88.9913 269.402 88.8249 269.372 88.6744C269.346 88.5254 269.223 88.4076 269.005 88.3209C268.787 88.2341 268.58 88.2211 268.384 88.2818C268.192 88.3441 268.01 88.4516 267.839 88.6044C267.674 88.7555 267.496 88.9531 267.305 89.1973C267.108 89.4481 266.96 89.6663 266.86 89.8519C266.763 90.0341 266.73 90.2005 266.76 90.351C266.793 90.4982 266.918 90.6152 267.136 90.7019C267.355 90.7886 267.561 90.8033 267.754 90.7459C267.95 90.6852 268.131 90.5776 268.299 90.4233C268.468 90.2656 268.652 90.0614 268.849 89.8106Z" fill="black"/>
<path d="M281.373 94.7847C281.821 94.2137 282.293 93.8146 282.788 93.5872C283.288 93.3613 283.82 93.3607 284.385 93.5852C284.951 93.8098 285.227 94.1317 285.215 94.5512C285.207 94.9721 284.979 95.4681 284.531 96.039C284.08 96.6132 283.604 97.0149 283.102 97.244C282.604 97.4747 282.072 97.4778 281.507 97.2533C280.942 97.0287 280.664 96.7043 280.675 96.2801C280.69 95.8574 280.922 95.3589 281.373 94.7847ZM283.724 95.7184C283.915 95.4742 284.057 95.2619 284.147 95.0814C284.244 94.8991 284.277 94.7328 284.247 94.5823C284.221 94.4333 284.099 94.3155 283.88 94.2287C283.662 94.142 283.455 94.129 283.259 94.1897C283.067 94.2519 282.885 94.3595 282.714 94.5123C282.55 94.6634 282.372 94.861 282.18 95.1052C281.983 95.356 281.835 95.5742 281.735 95.7597C281.638 95.942 281.605 96.1084 281.635 96.2589C281.668 96.4061 281.794 96.523 282.012 96.6098C282.23 96.6965 282.436 96.7111 282.629 96.6537C282.825 96.5931 283.007 96.4855 283.174 96.3312C283.344 96.1735 283.527 95.9692 283.724 95.7184ZM284.217 97.4208L284.645 96.8763L288.375 95.3192L289.328 95.6978L287.557 97.9551L288.071 98.1595L287.597 98.7634L287.083 98.559L286.531 99.2619L285.712 98.9367L286.264 98.2338L284.217 97.4208ZM287.979 96.1361L285.592 97.1746L286.791 97.6508L287.979 96.1361ZM287.996 99.8892C287.848 99.8304 287.755 99.7436 287.717 99.629C287.685 99.5127 287.715 99.3967 287.806 99.2812C287.896 99.1657 288.018 99.0886 288.171 99.0499C288.331 99.0094 288.485 99.0185 288.633 99.0774C288.777 99.1347 288.865 99.2215 288.897 99.3379C288.931 99.451 288.902 99.5652 288.812 99.6807C288.721 99.7962 288.598 99.875 288.442 99.9171C288.289 99.9558 288.14 99.9465 287.996 99.8892ZM289.604 97.8399C289.456 97.781 289.363 97.6943 289.325 97.5797C289.294 97.4633 289.323 97.3474 289.414 97.2319C289.505 97.1163 289.627 97.0392 289.78 97.0005C289.939 96.96 290.093 96.9692 290.241 97.028C290.386 97.0853 290.473 97.1722 290.505 97.2885C290.539 97.4016 290.51 97.5159 290.42 97.6314C290.329 97.7469 290.206 97.8257 290.05 97.8677C289.897 97.9064 289.748 97.8971 289.604 97.8399ZM290.556 98.4322C291.004 97.8613 291.476 97.4621 291.971 97.2347C292.471 97.0089 293.003 97.0082 293.569 97.2328C294.134 97.4573 294.41 97.7793 294.398 98.1987C294.39 98.6197 294.162 99.1156 293.714 99.6865C293.263 100.261 292.787 100.662 292.285 100.892C291.787 101.122 291.255 101.125 290.69 100.901C290.125 100.676 289.847 100.352 289.858 99.9276C289.873 99.5049 290.106 99.0064 290.556 98.4322ZM292.907 99.366C293.099 99.1218 293.24 98.9094 293.33 98.7289C293.427 98.5467 293.461 98.3803 293.43 98.2298C293.404 98.0809 293.282 97.963 293.064 97.8763C292.845 97.7896 292.638 97.7766 292.442 97.8373C292.25 97.8995 292.069 98.007 291.897 98.1599C291.733 98.3109 291.555 98.5086 291.363 98.7528C291.166 99.0036 291.018 99.2218 290.919 99.4073C290.822 99.5895 290.788 99.7559 290.818 99.9064C290.851 100.054 290.977 100.171 291.195 100.257C291.413 100.344 291.619 100.359 291.812 100.301C292.008 100.241 292.19 100.133 292.357 99.9787C292.527 99.821 292.71 99.6168 292.907 99.366ZM294.337 99.9339C294.785 99.363 295.257 98.9638 295.752 98.7364C296.251 98.5106 296.784 98.5099 297.349 98.7344C297.914 98.959 298.191 99.281 298.179 99.7004C298.171 100.121 297.943 100.617 297.495 101.188C297.044 101.762 296.568 102.164 296.066 102.393C295.568 102.624 295.036 102.627 294.471 102.403C293.905 102.178 293.628 101.854 293.639 101.429C293.653 101.007 293.886 100.508 294.337 99.9339ZM296.688 100.868C296.879 100.623 297.02 100.411 297.111 100.231C297.208 100.048 297.241 99.882 297.211 99.7315C297.185 99.5825 297.062 99.4647 296.844 99.378C296.626 99.2912 296.419 99.2782 296.223 99.3389C296.031 99.4012 295.849 99.5087 295.678 99.6615C295.514 99.8126 295.335 100.01 295.144 100.254C294.947 100.505 294.799 100.723 294.699 100.909C294.602 101.091 294.569 101.258 294.599 101.408C294.632 101.555 294.757 101.672 294.976 101.759C295.194 101.846 295.4 101.86 295.593 101.803C295.789 101.742 295.971 101.635 296.138 101.48C296.308 101.323 296.491 101.118 296.688 100.868Z" fill="black"/>
<path d="M307.382 105.116C307.83 104.545 308.302 104.146 308.797 103.918C309.296 103.692 309.829 103.692 310.394 103.916C310.959 104.141 311.236 104.463 311.224 104.882C311.216 105.303 310.988 105.799 310.54 106.37C310.089 106.944 309.613 107.346 309.111 107.575C308.613 107.806 308.081 107.809 307.516 107.584C306.95 107.36 306.673 107.035 306.684 106.611C306.698 106.188 306.931 105.69 307.382 105.116ZM309.733 106.05C309.924 105.805 310.065 105.593 310.156 105.412C310.253 105.23 310.286 105.064 310.256 104.913C310.23 104.764 310.107 104.647 309.889 104.56C309.671 104.473 309.464 104.46 309.268 104.521C309.076 104.583 308.894 104.691 308.723 104.843C308.559 104.994 308.38 105.192 308.189 105.436C307.992 105.687 307.844 105.905 307.744 106.091C307.647 106.273 307.614 106.439 307.644 106.59C307.677 106.737 307.802 106.854 308.021 106.941C308.239 107.028 308.445 107.042 308.638 106.985C308.834 106.924 309.016 106.817 309.183 106.662C309.353 106.505 309.536 106.3 309.733 106.05ZM314.937 106.597L313.042 105.845L312.378 106.691C312.527 106.638 312.698 106.615 312.892 106.623C313.088 106.627 313.272 106.663 313.443 106.731C313.755 106.855 313.965 107.014 314.073 107.209C314.182 107.403 314.209 107.609 314.157 107.826C314.106 108.04 314.001 108.249 313.84 108.454C313.543 108.833 313.174 109.088 312.736 109.216C312.301 109.347 311.848 109.318 311.376 109.131C310.932 108.954 310.651 108.719 310.533 108.426C310.416 108.132 310.459 107.827 310.662 107.509L311.457 107.825C311.389 107.971 311.384 108.108 311.442 108.235C311.505 108.364 311.632 108.466 311.823 108.542C312.053 108.633 312.274 108.641 312.487 108.566C312.7 108.49 312.885 108.351 313.043 108.15C313.204 107.946 313.265 107.766 313.227 107.613C313.196 107.457 313.065 107.334 312.835 107.243C312.671 107.178 312.507 107.158 312.344 107.184C312.18 107.21 312.03 107.271 311.892 107.368L311.109 107.057L312.771 104.938L315.415 105.988L314.937 106.597ZM313.902 110.179C313.754 110.121 313.661 110.034 313.623 109.919C313.591 109.803 313.621 109.687 313.712 109.571C313.802 109.456 313.924 109.379 314.077 109.34C314.237 109.3 314.391 109.309 314.539 109.368C314.683 109.425 314.771 109.512 314.803 109.628C314.837 109.741 314.808 109.855 314.718 109.971C314.627 110.086 314.504 110.165 314.348 110.207C314.195 110.246 314.046 110.237 313.902 110.179ZM315.51 108.13C315.362 108.071 315.269 107.985 315.231 107.87C315.2 107.754 315.229 107.638 315.32 107.522C315.411 107.407 315.533 107.329 315.686 107.291C315.845 107.25 315.999 107.259 316.147 107.318C316.292 107.376 316.379 107.462 316.411 107.579C316.445 107.692 316.416 107.806 316.326 107.922C316.235 108.037 316.112 108.116 315.956 108.158C315.803 108.197 315.654 108.187 315.51 108.13ZM316.462 108.722C316.91 108.152 317.382 107.752 317.877 107.525C318.377 107.299 318.909 107.298 319.474 107.523C320.04 107.748 320.316 108.07 320.304 108.489C320.296 108.91 320.068 109.406 319.62 109.977C319.169 110.551 318.693 110.953 318.191 111.182C317.693 111.413 317.161 111.416 316.596 111.191C316.031 110.967 315.753 110.642 315.764 110.218C315.779 109.795 316.011 109.297 316.462 108.722ZM318.813 109.656C319.005 109.412 319.146 109.2 319.236 109.019C319.333 108.837 319.367 108.671 319.336 108.52C319.31 108.371 319.188 108.253 318.969 108.167C318.751 108.08 318.544 108.067 318.348 108.128C318.156 108.19 317.975 108.297 317.803 108.45C317.639 108.601 317.461 108.799 317.269 109.043C317.072 109.294 316.924 109.512 316.825 109.698C316.728 109.88 316.694 110.046 316.724 110.197C316.757 110.344 316.883 110.461 317.101 110.548C317.319 110.634 317.525 110.649 317.718 110.592C317.914 110.531 318.096 110.423 318.263 110.269C318.433 110.111 318.616 109.907 318.813 109.656ZM320.243 110.224C320.691 109.653 321.163 109.254 321.658 109.027C322.157 108.801 322.69 108.8 323.255 109.025C323.82 109.249 324.097 109.571 324.085 109.991C324.077 110.412 323.849 110.908 323.401 111.478C322.95 112.053 322.474 112.454 321.972 112.684C321.474 112.914 320.942 112.917 320.377 112.693C319.811 112.468 319.534 112.144 319.545 111.72C319.559 111.297 319.792 110.798 320.243 110.224ZM322.594 111.158C322.785 110.914 322.926 110.701 323.017 110.521C323.114 110.339 323.147 110.172 323.117 110.022C323.091 109.873 322.968 109.755 322.75 109.668C322.532 109.581 322.325 109.568 322.129 109.629C321.937 109.691 321.755 109.799 321.584 109.952C321.42 110.103 321.241 110.3 321.05 110.545C320.853 110.795 320.705 111.014 320.605 111.199C320.508 111.381 320.475 111.548 320.505 111.698C320.538 111.846 320.663 111.963 320.882 112.049C321.1 112.136 321.306 112.151 321.499 112.093C321.695 112.033 321.877 111.925 322.044 111.771C322.214 111.613 322.397 111.409 322.594 111.158Z" fill="black"/>
<path d="M337.855 117.22C338.303 116.649 338.775 116.25 339.271 116.023C339.77 115.797 340.302 115.796 340.868 116.021C341.433 116.245 341.71 116.567 341.698 116.987C341.689 117.408 341.461 117.904 341.013 118.474C340.563 119.049 340.086 119.45 339.584 119.68C339.086 119.91 338.555 119.913 337.989 119.689C337.424 119.464 337.147 119.14 337.157 118.716C337.172 118.293 337.405 117.794 337.855 117.22ZM340.206 118.154C340.398 117.91 340.539 117.697 340.629 117.517C340.726 117.335 340.76 117.168 340.73 117.018C340.703 116.869 340.581 116.751 340.363 116.664C340.144 116.577 339.937 116.564 339.741 116.625C339.549 116.687 339.368 116.795 339.197 116.948C339.032 117.099 338.854 117.296 338.662 117.541C338.466 117.791 338.317 118.01 338.218 118.195C338.121 118.377 338.087 118.544 338.118 118.694C338.15 118.842 338.276 118.959 338.494 119.045C338.713 119.132 338.918 119.147 339.112 119.089C339.308 119.029 339.489 118.921 339.656 118.767C339.826 118.609 340.009 118.405 340.206 118.154ZM344.519 118.743C344.588 118.589 344.602 118.458 344.559 118.35C344.519 118.244 344.41 118.155 344.231 118.084C343.962 117.977 343.691 117.99 343.417 118.124C343.15 118.256 342.852 118.527 342.525 118.938C342.722 118.844 342.939 118.795 343.175 118.794C343.414 118.789 343.638 118.829 343.849 118.913C344.102 119.013 344.29 119.148 344.413 119.318C344.535 119.488 344.581 119.684 344.55 119.905C344.522 120.124 344.411 120.356 344.217 120.604C344.033 120.838 343.812 121.025 343.554 121.165C343.302 121.303 343.029 121.381 342.734 121.398C342.44 121.415 342.144 121.365 341.848 121.247C341.442 121.086 341.182 120.883 341.068 120.639C340.957 120.396 340.961 120.12 341.079 119.812C341.205 119.503 341.424 119.148 341.737 118.749C342.211 118.145 342.691 117.739 343.178 117.529C343.667 117.317 344.177 117.315 344.707 117.526C345.116 117.689 345.36 117.909 345.439 118.187C345.517 118.465 345.464 118.751 345.279 119.045L344.519 118.743ZM343.215 119.407C343.008 119.325 342.795 119.308 342.574 119.354C342.354 119.401 342.167 119.521 342.014 119.716C341.861 119.911 341.805 120.09 341.846 120.253C341.89 120.418 342.031 120.548 342.269 120.642C342.48 120.726 342.688 120.737 342.895 120.676C343.105 120.617 343.282 120.495 343.427 120.31C343.578 120.119 343.636 119.943 343.603 119.782C343.575 119.624 343.445 119.499 343.215 119.407ZM344.353 122.275C344.205 122.216 344.112 122.129 344.074 122.015C344.042 121.898 344.072 121.782 344.163 121.667C344.253 121.551 344.375 121.474 344.528 121.435C344.688 121.395 344.842 121.404 344.99 121.463C345.134 121.52 345.222 121.607 345.253 121.723C345.287 121.837 345.259 121.951 345.168 122.066C345.078 122.182 344.955 122.261 344.799 122.303C344.646 122.341 344.497 122.332 344.353 122.275ZM345.961 120.225C345.813 120.167 345.72 120.08 345.682 119.965C345.651 119.849 345.68 119.733 345.771 119.617C345.861 119.502 345.983 119.425 346.136 119.386C346.296 119.346 346.45 119.355 346.598 119.414C346.742 119.471 346.83 119.558 346.862 119.674C346.896 119.787 346.867 119.901 346.777 120.017C346.686 120.132 346.563 120.211 346.407 120.253C346.254 120.292 346.105 120.283 345.961 120.225ZM346.913 120.818C347.361 120.247 347.833 119.848 348.328 119.62C348.828 119.394 349.36 119.394 349.925 119.618C350.491 119.843 350.767 120.165 350.755 120.584C350.747 121.005 350.519 121.501 350.071 122.072C349.62 122.646 349.144 123.048 348.642 123.277C348.144 123.508 347.612 123.511 347.047 123.286C346.481 123.062 346.204 122.737 346.215 122.313C346.23 121.89 346.462 121.392 346.913 120.818ZM349.264 121.752C349.455 121.507 349.597 121.295 349.687 121.115C349.784 120.932 349.817 120.766 349.787 120.615C349.761 120.466 349.639 120.349 349.42 120.262C349.202 120.175 348.995 120.162 348.799 120.223C348.607 120.285 348.425 120.393 348.254 120.545C348.09 120.696 347.912 120.894 347.72 121.138C347.523 121.389 347.375 121.607 347.275 121.793C347.178 121.975 347.145 122.141 347.175 122.292C347.208 122.439 347.333 122.556 347.552 122.643C347.77 122.73 347.976 122.744 348.169 122.687C348.365 122.626 348.547 122.519 348.714 122.364C348.884 122.207 349.067 122.002 349.264 121.752ZM350.694 122.319C351.142 121.749 351.613 121.349 352.109 121.122C352.608 120.896 353.141 120.895 353.706 121.12C354.271 121.345 354.548 121.667 354.536 122.086C354.528 122.507 354.299 123.003 353.851 123.574C353.401 124.148 352.925 124.55 352.423 124.779C351.924 125.01 351.393 125.013 350.827 124.788C350.262 124.564 349.985 124.239 349.996 123.815C350.01 123.392 350.243 122.894 350.694 122.319ZM353.044 123.253C353.236 123.009 353.377 122.797 353.468 122.616C353.565 122.434 353.598 122.268 353.568 122.117C353.542 121.968 353.419 121.85 353.201 121.764C352.983 121.677 352.775 121.664 352.58 121.725C352.387 121.787 352.206 121.894 352.035 122.047C351.87 122.198 351.692 122.396 351.501 122.64C351.304 122.891 351.156 123.109 351.056 123.295C350.959 123.477 350.926 123.643 350.956 123.794C350.989 123.941 351.114 124.058 351.332 124.145C351.551 124.231 351.757 124.246 351.95 124.189C352.146 124.128 352.327 124.02 352.495 123.866C352.664 123.708 352.848 123.504 353.044 123.253Z" fill="black"/>
<rect width="123.319" height="19.4203" rx="9.71016" transform="matrix(0.929371 0.369147 -0.617352 0.786687 165.467 69.4618)" fill="#2E2E61"/>
<rect width="123.319" height="19.4203" rx="9.71016" transform="matrix(0.929371 0.369147 -0.617352 0.786687 130.699 113.767)" fill="#2E2E61"/>
<rect width="86.2244" height="19.4203" rx="9.71016" transform="matrix(0.929371 0.369147 -0.617352 0.786687 113.315 135.92)" fill="#2E2E61"/>
<rect width="106.723" height="19.4203" rx="9.71016" transform="matrix(0.929371 0.369147 -0.617352 0.786687 95.9297 158.072)" fill="#2E2E61"/>
<rect width="129.062" height="19.4203" rx="9.71016" transform="matrix(0.929371 0.369147 -0.617352 0.786687 78.5469 180.225)" fill="#2E2E61"/>
<rect width="46.7688" height="19.4203" rx="9.71016" transform="matrix(0.929371 0.369147 -0.617352 0.786687 207.757 231.548)" fill="#2E2E61"/>
<rect width="123.319" height="19.4203" rx="9.71016" transform="matrix(0.929371 0.369147 -0.617352 0.786687 211.705 116.885)" fill="#2E2E61"/>
<rect width="38.8409" height="19.4203" rx="9.71016" transform="matrix(0.929371 0.369147 -0.617352 0.786687 251.625 161.799)" fill="#2E2E61"/>
<rect width="63.116" height="19.4203" rx="9.71016" transform="matrix(0.929371 0.369147 -0.617352 0.786687 148.083 91.6143)" fill="#2E2E61"/>
<circle r="8.55271" transform="matrix(0.929371 0.369147 -0.617352 0.786687 184 174.194)" fill="#FB4809"/>
<path d="M185.563 174.629L186.241 182.359L182.959 181.029L181.208 184.112L179.455 183.965L181.242 180.814L176.546 181.527L185.563 174.629Z" fill="white"/>
<path d="M179.244 184.167C179.116 184.132 179.064 184.038 179.117 183.94L180.736 181.107L176.538 181.74C176.401 181.759 176.279 181.725 176.228 181.654C176.173 181.583 176.202 181.486 176.3 181.41L185.322 174.51C185.415 174.437 185.557 174.398 185.679 174.411C185.81 174.417 185.899 174.478 185.903 174.562L186.581 182.295C186.602 182.379 186.524 182.475 186.393 182.529C186.265 182.585 186.113 182.591 186.016 182.542L183.097 181.368L181.517 184.146C181.488 184.203 181.427 184.255 181.347 184.292C181.264 184.323 181.173 184.337 181.09 184.33L179.323 184.179L179.244 184.167ZM181.448 180.614L181.53 180.64C181.595 180.689 181.607 180.763 181.561 180.837L179.9 183.763L181.011 183.865L182.647 180.997C182.682 180.926 182.768 180.863 182.876 180.83C182.984 180.796 183.1 180.798 183.18 180.834L185.851 181.915L185.251 175.155L177.364 181.19L181.243 180.601C181.317 180.591 181.389 180.595 181.448 180.614Z" fill="black"/>
<line y1="-0.288952" x2="185.879" y2="-0.288952" transform="matrix(0.929371 0.369147 -0.617352 0.786687 175.237 62.9522)" stroke="black" stroke-width="0.577904"/>
<line y1="-0.288952" x2="3.8441" y2="-0.288952" transform="matrix(-0.617352 0.786687 -0.929371 -0.369147 177.61 59.9281)" stroke="black" stroke-width="0.577904"/>
<line y1="-0.288952" x2="3.8441" y2="-0.288952" transform="matrix(-0.617352 0.786687 -0.929371 -0.369147 177.61 59.9281)" stroke="black" stroke-width="0.577904"/>
<line y1="-0.288952" x2="2.3919" y2="-0.288952" transform="matrix(-0.617352 0.786687 -0.929371 -0.369147 179.739 62.2726)" stroke="black" stroke-width="0.577904"/>
<line y1="-0.288952" x2="2.3919" y2="-0.288952" transform="matrix(-0.617352 0.786687 -0.929371 -0.369147 182.766 63.4745)" stroke="black" stroke-width="0.577904"/>
<line y1="-0.288952" x2="2.3919" y2="-0.288952" transform="matrix(-0.617352 0.786687 -0.929371 -0.369147 185.792 64.6764)" stroke="black" stroke-width="0.577904"/>
<line y1="-0.288952" x2="2.3919" y2="-0.288952" transform="matrix(-0.617352 0.786687 -0.929371 -0.369147 188.818 65.8783)" stroke="black" stroke-width="0.577904"/>
<line y1="-0.288952" x2="2.3919" y2="-0.288952" transform="matrix(-0.617352 0.786687 -0.929371 -0.369147 191.844 67.0803)" stroke="black" stroke-width="0.577904"/>
<line y1="-0.288952" x2="2.3919" y2="-0.288952" transform="matrix(-0.617352 0.786687 -0.929371 -0.369147 194.87 68.2822)" stroke="black" stroke-width="0.577904"/>
<line y1="-0.288952" x2="2.3919" y2="-0.288952" transform="matrix(-0.617352 0.786687 -0.929371 -0.369147 197.896 69.4841)" stroke="black" stroke-width="0.577904"/>
<line y1="-0.288952" x2="2.3919" y2="-0.288952" transform="matrix(-0.617352 0.786687 -0.929371 -0.369147 200.923 70.686)" stroke="black" stroke-width="0.577904"/>
<line y1="-0.288952" x2="2.3919" y2="-0.288952" transform="matrix(-0.617352 0.786687 -0.929371 -0.369147 206.801 73.0208)" stroke="black" stroke-width="0.577904"/>
<line y1="-0.288952" x2="2.3919" y2="-0.288952" transform="matrix(-0.617352 0.786687 -0.929371 -0.369147 209.827 74.2227)" stroke="black" stroke-width="0.577904"/>
<line y1="-0.288952" x2="2.3919" y2="-0.288952" transform="matrix(-0.617352 0.786687 -0.929371 -0.369147 212.853 75.4246)" stroke="black" stroke-width="0.577904"/>
<line y1="-0.288952" x2="2.3919" y2="-0.288952" transform="matrix(-0.617352 0.786687 -0.929371 -0.369147 215.879 76.6266)" stroke="black" stroke-width="0.577904"/>
<line y1="-0.288952" x2="2.3919" y2="-0.288952" transform="matrix(-0.617352 0.786687 -0.929371 -0.369147 218.905 77.8284)" stroke="black" stroke-width="0.577904"/>
<line y1="-0.288952" x2="2.3919" y2="-0.288952" transform="matrix(-0.617352 0.786687 -0.929371 -0.369147 221.932 79.0304)" stroke="black" stroke-width="0.577904"/>
<line y1="-0.288952" x2="2.3919" y2="-0.288952" transform="matrix(-0.617352 0.786687 -0.929371 -0.369147 224.958 80.2323)" stroke="black" stroke-width="0.577904"/>
<line y1="-0.288952" x2="2.3919" y2="-0.288952" transform="matrix(-0.617352 0.786687 -0.929371 -0.369147 227.983 81.4343)" stroke="black" stroke-width="0.577904"/>
<line y1="-0.288952" x2="2.3919" y2="-0.288952" transform="matrix(-0.617352 0.786687 -0.929371 -0.369147 233.688 83.699)" stroke="black" stroke-width="0.577904"/>
<line y1="-0.288952" x2="2.3919" y2="-0.288952" transform="matrix(-0.617352 0.786687 -0.929371 -0.369147 236.713 84.9012)" stroke="black" stroke-width="0.577904"/>
<line y1="-0.288952" x2="2.3919" y2="-0.288952" transform="matrix(-0.617352 0.786687 -0.929371 -0.369147 239.738 86.1032)" stroke="black" stroke-width="0.577904"/>
<line y1="-0.288952" x2="2.3919" y2="-0.288952" transform="matrix(-0.617352 0.786687 -0.929371 -0.369147 242.765 87.3051)" stroke="black" stroke-width="0.577904"/>
<line y1="-0.288952" x2="2.3919" y2="-0.288952" transform="matrix(-0.617352 0.786687 -0.929371 -0.369147 245.791 88.507)" stroke="black" stroke-width="0.577904"/>
<line y1="-0.288952" x2="2.3919" y2="-0.288952" transform="matrix(-0.617352 0.786687 -0.929371 -0.369147 248.817 89.7089)" stroke="black" stroke-width="0.577904"/>
<line y1="-0.288952" x2="2.3919" y2="-0.288952" transform="matrix(-0.617352 0.786687 -0.929371 -0.369147 251.844 90.9108)" stroke="black" stroke-width="0.577904"/>
<line y1="-0.288952" x2="2.3919" y2="-0.288952" transform="matrix(-0.617352 0.786687 -0.929371 -0.369147 254.87 92.1128)" stroke="black" stroke-width="0.577904"/>
<line y1="-0.288952" x2="2.3919" y2="-0.288952" transform="matrix(-0.617352 0.786687 -0.929371 -0.369147 260.834 94.4825)" stroke="black" stroke-width="0.577904"/>
<line y1="-0.288952" x2="2.3919" y2="-0.288952" transform="matrix(-0.617352 0.786687 -0.929371 -0.369147 263.862 95.6838)" stroke="black" stroke-width="0.577904"/>
<line y1="-0.288952" x2="2.3919" y2="-0.288952" transform="matrix(-0.617352 0.786687 -0.929371 -0.369147 266.887 96.8858)" stroke="black" stroke-width="0.577904"/>
<line y1="-0.288952" x2="2.3919" y2="-0.288952" transform="matrix(-0.617352 0.786687 -0.929371 -0.369147 269.914 98.0877)" stroke="black" stroke-width="0.577904"/>
<line y1="-0.288952" x2="2.3919" y2="-0.288952" transform="matrix(-0.617352 0.786687 -0.929371 -0.369147 272.938 99.2897)" stroke="black" stroke-width="0.577904"/>
<line y1="-0.288952" x2="2.3919" y2="-0.288952" transform="matrix(-0.617352 0.786687 -0.929371 -0.369147 275.965 100.492)" stroke="black" stroke-width="0.577904"/>
<line y1="-0.288952" x2="2.3919" y2="-0.288952" transform="matrix(-0.617352 0.786687 -0.929371 -0.369147 278.992 101.693)" stroke="black" stroke-width="0.577904"/>
<line y1="-0.288952" x2="2.3919" y2="-0.288952" transform="matrix(-0.617352 0.786687 -0.929371 -0.369147 282.019 102.895)" stroke="black" stroke-width="0.577904"/>
<line y1="-0.288952" x2="2.3919" y2="-0.288952" transform="matrix(-0.617352 0.786687 -0.929371 -0.369147 287.983 105.265)" stroke="black" stroke-width="0.577904"/>
<line y1="-0.288952" x2="2.3919" y2="-0.288952" transform="matrix(-0.617352 0.786687 -0.929371 -0.369147 291.01 106.467)" stroke="black" stroke-width="0.577904"/>
<line y1="-0.288952" x2="2.3919" y2="-0.288952" transform="matrix(-0.617352 0.786687 -0.929371 -0.369147 294.035 107.669)" stroke="black" stroke-width="0.577904"/>
<line y1="-0.288952" x2="2.3919" y2="-0.288952" transform="matrix(-0.617352 0.786687 -0.929371 -0.369147 297.061 108.871)" stroke="black" stroke-width="0.577904"/>
<line y1="-0.288952" x2="2.3919" y2="-0.288952" transform="matrix(-0.617352 0.786687 -0.929371 -0.369147 300.088 110.072)" stroke="black" stroke-width="0.577904"/>
<line y1="-0.288952" x2="2.3919" y2="-0.288952" transform="matrix(-0.617352 0.786687 -0.929371 -0.369147 303.114 111.274)" stroke="black" stroke-width="0.577904"/>
<line y1="-0.288952" x2="2.3919" y2="-0.288952" transform="matrix(-0.617352 0.786687 -0.929371 -0.369147 306.141 112.476)" stroke="black" stroke-width="0.577904"/>
<line y1="-0.288952" x2="2.3919" y2="-0.288952" transform="matrix(-0.617352 0.786687 -0.929371 -0.369147 309.167 113.678)" stroke="black" stroke-width="0.577904"/>
<line y1="-0.288952" x2="2.3919" y2="-0.288952" transform="matrix(-0.617352 0.786687 -0.929371 -0.369147 315.132 116.048)" stroke="black" stroke-width="0.577904"/>
<line y1="-0.288952" x2="2.3919" y2="-0.288952" transform="matrix(-0.617352 0.786687 -0.929371 -0.369147 318.157 117.249)" stroke="black" stroke-width="0.577904"/>
<line y1="-0.288952" x2="2.3919" y2="-0.288952" transform="matrix(-0.617352 0.786687 -0.929371 -0.369147 321.182 118.451)" stroke="black" stroke-width="0.577904"/>
<line y1="-0.288952" x2="2.3919" y2="-0.288952" transform="matrix(-0.617352 0.786687 -0.929371 -0.369147 324.209 119.653)" stroke="black" stroke-width="0.577904"/>
<line y1="-0.288952" x2="2.3919" y2="-0.288952" transform="matrix(-0.617352 0.786687 -0.929371 -0.369147 327.235 120.855)" stroke="black" stroke-width="0.577904"/>
<line y1="-0.288952" x2="2.3919" y2="-0.288952" transform="matrix(-0.617352 0.786687 -0.929371 -0.369147 330.262 122.057)" stroke="black" stroke-width="0.577904"/>
<line y1="-0.288952" x2="2.3919" y2="-0.288952" transform="matrix(-0.617352 0.786687 -0.929371 -0.369147 333.288 123.259)" stroke="black" stroke-width="0.577904"/>
<line y1="-0.288952" x2="2.3919" y2="-0.288952" transform="matrix(-0.617352 0.786687 -0.929371 -0.369147 336.314 124.461)" stroke="black" stroke-width="0.577904"/>
<line y1="-0.288952" x2="3.8441" y2="-0.288952" transform="matrix(-0.617352 0.786687 -0.929371 -0.369147 204.845 70.746)" stroke="black" stroke-width="0.577904"/>
<line y1="-0.288952" x2="3.8441" y2="-0.288952" transform="matrix(-0.617352 0.786687 -0.929371 -0.369147 231.73 81.4252)" stroke="black" stroke-width="0.577904"/>
<line y1="-0.288952" x2="3.8441" y2="-0.288952" transform="matrix(-0.617352 0.786687 -0.929371 -0.369147 258.793 92.1736)" stroke="black" stroke-width="0.577904"/>
<line y1="-0.288952" x2="3.8441" y2="-0.288952" transform="matrix(-0.617352 0.786687 -0.929371 -0.369147 285.853 102.922)" stroke="black" stroke-width="0.577904"/>
<line y1="-0.288952" x2="3.8441" y2="-0.288952" transform="matrix(-0.617352 0.786687 -0.929371 -0.369147 312.912 113.67)" stroke="black" stroke-width="0.577904"/>
<line y1="-0.288952" x2="3.8441" y2="-0.288952" transform="matrix(-0.617352 0.786687 -0.929371 -0.369147 339.974 124.419)" stroke="black" stroke-width="0.577904"/>
</svg>
